<svg width="489" height="266" viewBox="0 0 489 266" fill="none" xmlns="http://www.w3.org/2000/svg">
<path d="M347.512 106.581C292.189 102.472 239.455 122.16 186.776 135.486C168.674 140.068 149.468 143.971 130.633 141.552C100.513 137.686 77.9376 118.494 63.7736 98.2094C49.6096 77.9244 41.198 55.4637 25.0534 36.03C18.4803 28.1134 9.98189 20.5575 0 15V266H471.492C482.46 232.519 482.902 196.82 462.726 166.266C441.105 133.541 396.024 110.182 347.512 106.581Z" fill="#FFF0E5"/>
<path d="M-21 23C-10.7472 28.7125 -2.01815 36.4791 4.7333 44.6165C21.3161 64.5921 29.956 87.6793 44.5044 108.53C59.0528 129.381 82.2412 149.107 113.178 153.082C132.524 155.567 152.252 151.556 170.845 146.847C224.954 133.149 279.119 112.912 335.943 117.135C385.772 120.836 432.076 144.847 454.284 178.484C475.008 209.891 477.266 229.085 466 263.5" stroke="#FF5B00" stroke-width="4" stroke-linecap="round"/>
<path d="M0 1C10.2528 6.71254 18.9819 14.4791 25.7333 22.6165C42.3161 42.5921 50.956 65.6793 65.5044 86.53C80.0528 107.381 103.241 127.107 134.178 131.082C153.524 133.567 173.252 129.556 191.845 124.847C245.954 111.149 300.119 90.9117 356.943 95.1353C406.772 98.8363 453.076 122.847 475.284 156.484C496.008 187.891 486.55 229.585 475.284 264" stroke="white" stroke-width="2" stroke-linecap="round"/>
</svg>
