<svg width="70" height="88" viewBox="0 0 70 88" fill="none" xmlns="http://www.w3.org/2000/svg">
<path d="M24.3361 14.0494C24.426 13.9954 24.426 13.9235 24.432 13.8516C24.3481 13.9175 24.3181 13.9774 24.3361 14.0494Z" />
<path d="M24.4386 13.8457H24.4326V13.8517L24.4386 13.8457Z" />
<path d="M20.0332 0.0537109C20.0332 0.0716928 20.0332 0.0956722 20.0392 0.113654C20.0392 0.0896783 20.0452 0.0716928 20.0332 0.0537109Z" />
<path d="M24.4101 10.5134H24.2542C24.2482 10.3456 24.428 10.4535 24.3861 10.3036C24.1643 10.2556 24.3981 10.0459 24.2842 10.0039C24.3022 10.0039 24.3082 9.92599 24.3741 9.93198C24.2542 9.914 24.3441 9.85405 24.3141 9.81209C24.2782 9.79411 24.2782 9.82409 24.2422 9.84207L24.1943 9.73417C24.2302 9.69221 24.2962 9.67424 24.3141 9.72219C24.3441 9.43448 24.4041 8.07985 24.3381 7.77415C24.2482 7.81611 24.3142 7.90603 24.1763 7.94798C24.0924 7.87006 24.2003 7.8281 24.1164 7.79213C24.3201 7.75617 24.1583 7.61232 24.3681 7.55238L24.2482 7.5284L24.3201 7.48644C24.1943 7.13279 24.2602 7.40853 24.2902 7.09085C24.2722 6.91103 24.1104 6.82111 24.1703 6.71921C24.1703 6.73719 24.0984 6.77316 24.0684 6.72521C24.1703 6.71922 23.9965 6.59934 24.0984 6.57536C24.0864 6.52741 24.0984 6.37757 23.9545 6.43151C24.0265 6.40754 24.0564 6.26968 24.1164 6.35359C24.1223 6.30564 24.1403 6.26367 24.1104 6.2337L24.0684 6.29365C24.0504 6.1378 24.1583 6.05389 24.0324 5.95799L23.9785 6.01193C23.9725 5.92202 23.9605 5.8441 24.0984 5.80814L24.1403 5.90404C24.1403 5.7542 24.1283 5.6583 24.0564 5.53242L24.0504 5.57438C23.9125 5.41255 23.7987 4.5674 23.6248 4.41156L23.517 4.47748L23.4271 4.34561C23.4271 4.3576 23.7807 4.41155 23.7447 4.42354C23.7208 4.14782 23.6908 2.71526 23.7807 2.4695C23.8466 2.36761 23.9545 2.45752 23.9725 2.45752C23.9365 2.33165 23.8586 2.39759 23.8706 2.29569C23.8886 2.26572 23.9545 2.30167 23.9725 2.31966C23.9605 2.2717 24.0025 2.22974 23.9485 2.22375C23.9066 2.28369 23.7747 2.25373 23.6848 2.27171L23.7028 2.13384L23.7867 2.14584C23.7927 2.11587 23.5589 2.05592 23.6069 1.92405C23.6548 1.70228 23.6308 1.45055 23.6608 1.22877C23.7088 1.23476 23.7387 1.28271 23.7687 1.33666C23.7747 1.30669 23.7627 1.25874 23.7987 1.22877C23.7088 1.28272 23.7447 1.13286 23.7028 1.16883C23.499 0.989009 23.7028 0.785218 23.5649 0.629376C23.3791 0.611394 20.3641 0.125869 20.1424 0.107887C20.1484 0.0599351 20.1543 0.0119879 20.1723 0C20.1184 0.00599395 20.0884 0.101897 20.1184 0.149849L20.2383 0.16783C20.2742 0.281715 20.1663 0.191806 20.1723 0.299697C20.0764 0.299697 20.0584 0.197796 20.0525 0.107887C20.0405 0.185808 19.9625 0.26374 20.0704 0.305697C20.0285 0.377625 19.9506 0.287713 19.9086 0.377622C19.9326 0.443555 20.0285 0.533467 19.9625 0.605395H19.9446C19.8367 0.785213 20.0824 0.893104 19.9745 1.05494L19.9446 1.03696C19.8846 1.09091 19.9566 1.21079 19.8906 1.31868C19.9146 1.28871 19.9865 1.26472 19.9925 1.33066C19.9266 1.45054 19.9865 1.54044 19.9026 1.62436L19.9925 1.71428C19.9625 2.13985 20.0045 3.83014 20.0405 4.25571L20.0225 4.23773C20.0704 4.89107 20.0584 6.22772 20.1843 6.89904C20.0884 7.00094 20.1124 7.1448 20.0824 7.25868C20.1244 7.19874 20.1903 7.21671 20.1843 7.26466C20.1723 7.59433 20.2443 7.28864 20.2922 7.61831C20.3941 8.00192 20.3521 9.48242 20.2862 9.83007C20.4301 10.0099 20.3342 10.2437 20.4301 10.4175L20.3941 10.3995C20.4241 10.4954 20.4181 10.8191 20.4121 11.1488C20.4121 11.4784 20.4361 11.8141 20.466 11.928L20.484 11.898C20.5859 12.0898 20.4361 12.0778 20.4001 12.2337C20.5559 12.1977 20.6578 12.3595 20.6758 12.4255H20.6399C20.6758 12.5214 20.8317 12.7311 20.8676 12.887H20.7837C20.8856 13.0129 20.8736 13.2706 20.8916 13.3665C20.8796 13.5883 20.7657 13.9479 20.9036 14.2296L20.6818 14.4514L20.7118 14.4754C20.7118 14.4754 23.6488 14.3675 24.2302 13.924L24.3141 13.918L24.2962 13.846C24.3261 13.7561 24.2302 13.7262 24.3141 13.7202V13.84C24.3321 13.7501 24.3801 13.8041 24.434 13.834C24.44 13.7981 24.446 13.7621 24.47 13.7321C24.434 13.7202 24.434 13.7501 24.4161 13.7621C24.3801 13.7201 24.2962 13.6662 24.3321 13.6063C24.3321 13.5164 24.47 13.5823 24.47 13.4804C24.482 12.9349 24.5299 12.4015 24.458 11.862C24.494 11.844 24.494 11.862 24.512 11.874C24.458 11.7122 24.458 11.5683 24.4041 11.4185C24.44 11.3765 24.488 11.3585 24.5239 11.3406C24.446 11.3885 24.3861 10.5314 24.4101 10.5134Z" />
<path d="M24.3233 69.1043C24.4192 69.0684 24.4252 69.0025 24.4432 68.9365C24.3533 68.9845 24.3113 69.0384 24.3233 69.1043Z" />
<path d="M20.6719 56.3076C20.6719 56.3256 20.6719 56.3436 20.6779 56.3616C20.6779 56.3436 20.6839 56.3256 20.6719 56.3076Z" />
<path d="M24.797 65.814L24.6411 65.796C24.6411 65.6402 24.821 65.7601 24.785 65.6162C24.5692 65.5563 24.815 65.3824 24.7011 65.3285C24.7191 65.3285 24.7251 65.2626 24.797 65.2685C24.6771 65.2446 24.773 65.1966 24.743 65.1487C24.7131 65.1307 24.7071 65.1606 24.6711 65.1726L24.6292 65.0707C24.6711 65.0348 24.737 65.0228 24.749 65.0647C24.797 64.807 24.9468 63.5423 24.8929 63.2606C24.803 63.2965 24.8629 63.3804 24.7191 63.4104C24.6411 63.3325 24.749 63.3025 24.6651 63.2666C24.8749 63.2426 24.7191 63.1047 24.9348 63.0568L24.815 63.0328L24.8869 62.9968C24.773 62.6731 24.827 62.9249 24.8689 62.6432C24.8569 62.4814 24.6951 62.3974 24.761 62.3075C24.761 62.3195 24.6831 62.3555 24.6591 62.3135C24.761 62.3075 24.5872 62.1996 24.6951 62.1817C24.6831 62.1397 24.7011 62.0018 24.5572 62.0438C24.6292 62.0258 24.6591 61.906 24.7191 61.9779C24.7251 61.9359 24.749 61.9 24.7131 61.87L24.6711 61.9239C24.6531 61.7861 24.767 61.7141 24.6411 61.6242L24.5812 61.6722C24.5752 61.5883 24.5632 61.5223 24.7071 61.4924L24.749 61.5763C24.749 61.4384 24.743 61.3605 24.6711 61.2406L24.6651 61.2826C24.5273 61.1327 24.4373 60.3715 24.2695 60.2336L24.1556 60.2936L24.0657 60.1737C24.0657 60.1857 24.4194 60.2396 24.3834 60.2516C24.3834 60.0059 24.3414 58.7232 24.4194 58.4954C24.4853 58.4055 24.5932 58.4894 24.6112 58.4894C24.5752 58.3755 24.4973 58.4354 24.5093 58.3395C24.5273 58.3156 24.5932 58.3515 24.6112 58.3635C24.5992 58.3215 24.6411 58.2856 24.5872 58.2796C24.5452 58.3275 24.4134 58.3036 24.3235 58.3155L24.3414 58.1957L24.4254 58.2077C24.4314 58.1837 24.1916 58.1238 24.2455 58.0099C24.2875 57.8121 24.2695 57.5903 24.2935 57.3865C24.3414 57.3925 24.3714 57.4345 24.4014 57.4824C24.4074 57.4584 24.3954 57.4105 24.4313 57.3865C24.3414 57.4284 24.3774 57.2966 24.3354 57.3326C24.1316 57.1707 24.3295 56.9909 24.1916 56.8471C24.0058 56.8291 20.9848 56.3735 20.7631 56.3615C20.769 56.3196 20.7751 56.2776 20.793 56.2656C20.7391 56.2716 20.7151 56.3556 20.7391 56.3975L20.859 56.4095C20.8949 56.5114 20.787 56.4275 20.793 56.5294C20.6971 56.5294 20.6791 56.4395 20.6731 56.3555C20.6612 56.4275 20.5832 56.4934 20.6911 56.5294C20.6492 56.5953 20.5713 56.5174 20.5293 56.5953C20.5533 56.6552 20.6492 56.7392 20.5892 56.7991H20.5712C20.4633 56.9549 20.7091 57.0508 20.6072 57.1947L20.5772 57.1767C20.5173 57.2247 20.5892 57.3325 20.5293 57.4225C20.5533 57.3985 20.6252 57.3805 20.6312 57.4345C20.5653 57.5363 20.6252 57.6143 20.5473 57.6922L20.6372 57.7701C20.6072 58.1477 20.6911 59.6342 20.6971 60.0118L20.6851 59.9998C20.7151 60.5753 20.6671 61.7561 20.781 62.3495C20.6851 62.4394 20.7031 62.5653 20.6731 62.6612C20.7151 62.6072 20.781 62.6312 20.775 62.6672C20.7571 62.9609 20.841 62.6912 20.8709 62.9849C20.9489 63.3325 20.817 64.5912 20.7271 64.8849C20.859 65.0468 20.7511 65.2386 20.835 65.4004L20.805 65.3824C20.853 65.5503 20.6971 66.4853 20.7451 66.6831L20.7691 66.6592C20.853 66.833 20.6971 66.803 20.6492 66.9289C20.805 66.9169 20.8889 67.0667 20.9009 67.1207L20.8709 67.1147C20.8949 67.1986 21.0268 67.3904 21.0388 67.5342L20.9549 67.5223C21.0448 67.6422 20.9968 67.8519 21.0088 67.9359C20.9668 68.1217 20.811 68.4034 20.9189 68.6611L20.6731 68.811L20.6971 68.835C20.6971 68.835 23.6162 69.2785 24.2515 68.9728L24.3354 68.9848L24.3235 68.9188C24.3654 68.8409 24.2695 68.799 24.3534 68.805L24.3414 68.9129C24.3654 68.835 24.4134 68.8889 24.4613 68.9248C24.4673 68.8889 24.4793 68.8589 24.5093 68.835C24.4793 68.817 24.4733 68.8469 24.4553 68.8589C24.4254 68.811 24.3474 68.745 24.3894 68.6971C24.4014 68.6132 24.5273 68.6971 24.5393 68.6012C24.6172 68.0917 24.7311 67.6002 24.7251 67.0847C24.761 67.0727 24.761 67.0907 24.773 67.1027C24.743 66.9469 24.755 66.809 24.7251 66.6652C24.767 66.6292 24.815 66.6172 24.8509 66.6052C24.761 66.6352 24.779 65.826 24.797 65.814Z" />
<path d="M13.2667 58.6209C13.3626 58.585 13.3686 58.5191 13.3865 58.4531C13.2966 58.5011 13.2547 58.555 13.2667 58.6209Z" />
<path d="M9.61621 45.8242C9.61621 45.8422 9.61622 45.8602 9.62221 45.8782C9.62221 45.8602 9.6282 45.8422 9.61621 45.8242Z" />
<path d="M13.7403 55.3306L13.5845 55.3126C13.5845 55.1568 13.7643 55.2767 13.7283 55.1328C13.5126 55.0729 13.7583 54.899 13.6444 54.8451C13.6624 54.8451 13.6684 54.7792 13.7403 54.7852C13.6205 54.7612 13.7164 54.7132 13.6864 54.6653C13.6564 54.6473 13.6504 54.6772 13.6145 54.6892L13.5725 54.5873C13.6145 54.5514 13.6804 54.5394 13.6924 54.5813C13.7403 54.3236 13.8902 53.0589 13.8363 52.7772C13.7463 52.8131 13.8063 52.897 13.6624 52.927C13.5845 52.8491 13.6924 52.8191 13.6085 52.7832C13.8183 52.7592 13.6624 52.6213 13.8782 52.5734L13.7583 52.5494L13.8303 52.5134C13.7164 52.1897 13.7703 52.4415 13.8123 52.1598C13.8003 51.998 13.6385 51.914 13.7044 51.8241C13.7044 51.8361 13.6265 51.8721 13.6025 51.8301C13.7044 51.8241 13.5305 51.7162 13.6384 51.6983C13.6265 51.6563 13.6444 51.5184 13.5006 51.5604C13.5725 51.5424 13.6025 51.4226 13.6624 51.4945C13.6684 51.4525 13.6924 51.4166 13.6564 51.3866L13.6145 51.4405C13.5965 51.3027 13.7104 51.2307 13.5845 51.1408L13.5246 51.1888C13.5186 51.1049 13.5066 51.0389 13.6504 51.009L13.6924 51.0929C13.6924 50.955 13.6864 50.8771 13.6145 50.7572L13.6085 50.7992C13.4706 50.6493 13.3807 49.8881 13.2129 49.7502L13.099 49.8102L13.0091 49.6903C13.0091 49.7023 13.3627 49.7562 13.3268 49.7682C13.3268 49.5225 13.2848 48.2398 13.3627 48.012C13.4287 47.9221 13.5366 48.006 13.5545 48.006C13.5186 47.8921 13.4406 47.952 13.4526 47.8561C13.4706 47.8322 13.5366 47.8681 13.5545 47.8801C13.5425 47.8382 13.5845 47.8022 13.5306 47.7962C13.4886 47.8441 13.3567 47.8202 13.2668 47.8321L13.2848 47.7123L13.3687 47.7243C13.3747 47.7003 13.1349 47.6404 13.1889 47.5265C13.2309 47.3287 13.2129 47.1069 13.2369 46.9031C13.2848 46.9091 13.3148 46.9511 13.3447 46.999C13.3507 46.975 13.3387 46.9271 13.3747 46.9031C13.2848 46.9451 13.3208 46.8132 13.2788 46.8492C13.075 46.6873 13.2728 46.5075 13.135 46.3637C12.9491 46.3457 9.92819 45.8901 9.70641 45.8782C9.7124 45.8362 9.71841 45.7942 9.73639 45.7822C9.68245 45.7882 9.65845 45.8722 9.68243 45.9141L9.80232 45.9261C9.83828 46.028 9.7304 45.9441 9.73639 46.046C9.64049 46.046 9.6225 45.9561 9.61651 45.8722C9.60452 45.9441 9.5266 46.01 9.63449 46.046C9.59253 46.1119 9.51461 46.034 9.47266 46.1119C9.49663 46.1718 9.59252 46.2558 9.53258 46.3157H9.5146C9.40671 46.4715 9.65246 46.5674 9.55056 46.7113L9.5206 46.6933C9.46066 46.7413 9.5326 46.8491 9.47266 46.9391C9.49663 46.9151 9.56855 46.8971 9.57454 46.9511C9.50861 47.053 9.56856 47.1309 9.49064 47.2088L9.58054 47.2867C9.55057 47.6643 9.63449 49.1508 9.64049 49.5284L9.62849 49.5164C9.65846 50.0919 9.61051 51.2727 9.72439 51.8661C9.62849 51.956 9.64647 52.0819 9.61651 52.1778C9.65846 52.1238 9.72439 52.1478 9.71839 52.1838C9.70041 52.4775 9.78433 52.2078 9.8143 52.5015C9.89222 52.8491 9.76036 54.1078 9.67045 54.4015C9.80232 54.5634 9.69442 54.7552 9.77834 54.917L9.74837 54.899C9.79632 55.0669 9.64048 56.0019 9.68843 56.1997L9.71241 56.1758C9.79633 56.3496 9.64048 56.3196 9.59252 56.4455C9.74837 56.4335 9.83229 56.5833 9.84428 56.6373L9.8143 56.6313C9.83827 56.7152 9.97014 56.907 9.98213 57.0508L9.89822 57.0389C9.98813 57.1588 9.94018 57.3686 9.95216 57.4525C9.91021 57.6383 9.75437 57.92 9.86226 58.1777L9.61651 58.3276L9.64049 58.3516C9.64049 58.3516 12.5595 58.7951 13.1949 58.4894L13.2788 58.5014L13.2668 58.4354C13.3088 58.3575 13.2129 58.3156 13.2968 58.3216L13.2848 58.4295C13.3088 58.3516 13.3567 58.4055 13.4047 58.4414C13.4107 58.4055 13.4227 58.3755 13.4526 58.3516C13.4227 58.3336 13.4167 58.3635 13.3987 58.3755C13.3687 58.3276 13.2908 58.2616 13.3328 58.2137C13.3447 58.1298 13.4706 58.2137 13.4826 58.1178C13.5605 57.6083 13.6744 57.1168 13.6684 56.6013C13.7044 56.5893 13.7044 56.6073 13.7164 56.6193C13.6864 56.4635 13.6984 56.3256 13.6684 56.1818C13.7104 56.1458 13.7583 56.1338 13.7943 56.1218C13.7044 56.1518 13.7224 55.3426 13.7403 55.3306Z" />
<path d="M16.8633 87.3914C16.9592 87.3555 16.9652 87.2896 16.9832 87.2236C16.8933 87.2716 16.8513 87.3255 16.8633 87.3914Z" />
<path d="M13.2119 74.5947C13.2119 74.6127 13.2119 74.6307 13.2179 74.6487C13.2179 74.6307 13.2239 74.6127 13.2119 74.5947Z" />
<path d="M17.337 84.1011L17.1812 84.0831C17.1812 83.9273 17.361 84.0472 17.325 83.9033C17.1092 83.8434 17.355 83.6695 17.2411 83.6156C17.2591 83.6156 17.2651 83.5497 17.337 83.5557C17.2171 83.5317 17.3131 83.4837 17.2831 83.4358C17.2531 83.4178 17.2471 83.4477 17.2111 83.4597L17.1692 83.3578C17.2112 83.3219 17.2771 83.3099 17.2891 83.3518C17.337 83.0941 17.4869 81.8294 17.4329 81.5477C17.343 81.5836 17.403 81.6675 17.2591 81.6975C17.1812 81.6196 17.2891 81.5896 17.2052 81.5537C17.4149 81.5297 17.2591 81.3918 17.4749 81.3439L17.355 81.3199L17.4269 81.2839C17.313 80.9603 17.367 81.212 17.409 80.9303C17.397 80.7685 17.2351 80.6846 17.3011 80.5946C17.3011 80.6066 17.2231 80.6426 17.1992 80.6006C17.3011 80.5947 17.1272 80.4867 17.2351 80.4688C17.2231 80.4268 17.2411 80.289 17.0973 80.3309C17.1692 80.3129 17.1992 80.1931 17.2591 80.265C17.2651 80.223 17.2891 80.1871 17.2531 80.1571L17.2111 80.211C17.1932 80.0732 17.3071 80.0012 17.1812 79.9113L17.1212 79.9593C17.1152 79.8754 17.1033 79.8094 17.2471 79.7795L17.2891 79.8634C17.2891 79.7255 17.2831 79.6476 17.2111 79.5277L17.2052 79.5697C17.0673 79.4198 16.9774 78.6586 16.8096 78.5207L16.6957 78.5807L16.6058 78.4608C16.6058 78.4728 16.9594 78.5267 16.9234 78.5387C16.9234 78.293 16.8815 77.0103 16.9594 76.7825C17.0253 76.6926 17.1332 76.7765 17.1512 76.7765C17.1153 76.6626 17.0373 76.7226 17.0493 76.6267C17.0673 76.6027 17.1332 76.6386 17.1512 76.6506C17.1392 76.6087 17.1812 76.5727 17.1272 76.5667C17.0853 76.6146 16.9534 76.5907 16.8635 76.6027L16.8815 76.4828L16.9654 76.4948C16.9714 76.4708 16.7316 76.4109 16.7856 76.297C16.8275 76.0992 16.8096 75.8774 16.8335 75.6736C16.8815 75.6796 16.9115 75.7216 16.9414 75.7695C16.9474 75.7455 16.9354 75.6976 16.9714 75.6736C16.8815 75.7156 16.9174 75.5837 16.8755 75.6197C16.6717 75.4578 16.8695 75.278 16.7316 75.1342C16.5458 75.1162 13.5249 74.6606 13.3031 74.6487C13.3091 74.6067 13.3151 74.5647 13.3331 74.5527C13.2791 74.5587 13.2551 74.6427 13.2791 74.6846L13.399 74.6966C13.435 74.7985 13.3271 74.7146 13.3331 74.8165C13.2372 74.8165 13.2192 74.7266 13.2132 74.6427C13.2012 74.7146 13.1233 74.7805 13.2312 74.8165C13.1892 74.8824 13.1113 74.8045 13.0693 74.8824C13.0933 74.9423 13.1892 75.0263 13.1293 75.0862H13.1113C13.0034 75.242 13.2491 75.3379 13.1472 75.4818L13.1173 75.4638C13.0573 75.5118 13.1293 75.6197 13.0693 75.7096C13.0933 75.6856 13.1652 75.6676 13.1712 75.7216C13.1053 75.8235 13.1652 75.9014 13.0873 75.9793L13.1772 76.0572C13.1473 76.4348 13.2312 77.9213 13.2372 78.299L13.2252 78.287C13.2551 78.8624 13.2072 80.0432 13.3211 80.6366C13.2252 80.7265 13.2432 80.8524 13.2132 80.9483C13.2551 80.8943 13.3211 80.9183 13.3151 80.9543C13.2971 81.248 13.381 80.9783 13.411 81.272C13.4889 81.6196 13.357 82.8783 13.2671 83.172C13.399 83.3339 13.2911 83.5257 13.375 83.6875L13.3451 83.6695C13.393 83.8374 13.2372 84.7724 13.2851 84.9702L13.3091 84.9463C13.393 85.1201 13.2372 85.0901 13.1892 85.216C13.345 85.204 13.429 85.3538 13.441 85.4078L13.411 85.4018C13.435 85.4857 13.5668 85.6775 13.5788 85.8214L13.4949 85.8094C13.5848 85.9293 13.5369 86.1391 13.5488 86.223C13.5069 86.4088 13.351 86.6905 13.4589 86.9482L13.2132 87.0981L13.2372 87.1221C13.2372 87.1221 16.1562 87.5656 16.7916 87.2599L16.8755 87.2719L16.8635 87.206C16.9055 87.128 16.8095 87.0861 16.8935 87.0921L16.8815 87.2C16.9055 87.1221 16.9534 87.176 17.0014 87.212C17.0074 87.176 17.0193 87.146 17.0493 87.1221C17.0193 87.1041 17.0133 87.134 16.9954 87.146C16.9654 87.0981 16.8875 87.0321 16.9294 86.9842C16.9414 86.9003 17.0673 86.9842 17.0793 86.8883C17.1572 86.3788 17.2711 85.8873 17.2651 85.3718C17.3011 85.3598 17.3011 85.3778 17.313 85.3898C17.2831 85.234 17.2951 85.0961 17.2651 84.9523C17.3071 84.9163 17.355 84.9043 17.391 84.8923C17.3011 84.9223 17.319 84.1131 17.337 84.1011Z" />
<path d="M3.83755 70.7047C3.93346 70.6747 3.94543 70.6088 3.95742 70.5488C3.86751 70.5908 3.83156 70.6387 3.83755 70.7047Z" />
<path d="M0.142578 58.6689C0.142578 58.6869 0.148578 58.6989 0.148578 58.7169C0.148578 58.6989 0.154566 58.6869 0.142578 58.6689Z" />
<path d="M4.30965 67.606L4.1538 67.5941C4.1538 67.4502 4.32762 67.5581 4.29765 67.4202C4.08187 67.3603 4.32763 67.1985 4.21375 67.1505C4.23173 67.1505 4.23772 67.0846 4.30965 67.0905C4.19577 67.0666 4.28566 67.0246 4.25569 66.9827C4.22572 66.9647 4.21973 66.9947 4.18377 67.0007L4.1478 66.9047C4.18976 66.8688 4.2557 66.8628 4.26769 66.9047C4.31564 66.659 4.46548 65.4722 4.41154 65.2025C4.32163 65.2324 4.38156 65.3164 4.23771 65.3463C4.15979 65.2744 4.26768 65.2444 4.18377 65.2084C4.39355 65.1845 4.23771 65.0526 4.4475 65.0047L4.32763 64.9807L4.39956 64.9447C4.28567 64.633 4.33961 64.8668 4.37558 64.6031C4.36359 64.4532 4.20175 64.3753 4.26169 64.2914C4.26169 64.3034 4.18378 64.3393 4.1598 64.2974C4.2617 64.2914 4.08787 64.1895 4.19577 64.1715C4.18378 64.1355 4.20175 64.0037 4.0579 64.0456C4.12982 64.0216 4.15979 63.9138 4.21973 63.9797C4.22572 63.9437 4.24971 63.9078 4.21375 63.8778L4.17178 63.9258C4.1538 63.7939 4.26768 63.7279 4.1418 63.644L4.08188 63.692C4.07588 63.6141 4.06389 63.5481 4.20775 63.5241L4.24971 63.6021C4.24971 63.4762 4.24371 63.3983 4.17178 63.2904L4.16578 63.3264C4.02792 63.1885 3.93203 62.4752 3.7642 62.3434L3.65629 62.3973L3.56639 62.2894C3.56639 62.3014 3.92003 62.3553 3.88407 62.3613C3.87807 62.1335 3.83013 60.9288 3.90805 60.719C3.97398 60.6351 4.08188 60.713 4.09986 60.713C4.0639 60.6051 3.98597 60.665 3.99795 60.5751C4.01594 60.5512 4.08188 60.5871 4.09986 60.5991C4.08787 60.5571 4.12982 60.5272 4.07588 60.5212C4.03392 60.5692 3.90205 60.5392 3.81214 60.5572L3.82412 60.4433L3.90805 60.4492C3.91404 60.4253 3.67429 60.3713 3.72824 60.2634C3.7702 60.0776 3.74621 59.8678 3.77018 59.682C3.81813 59.688 3.84812 59.73 3.87809 59.772C3.88408 59.748 3.87208 59.706 3.90805 59.682C3.81814 59.724 3.84811 59.5981 3.81214 59.6341C3.60835 59.4842 3.80016 59.3104 3.66229 59.1785C3.47648 59.1546 0.455531 58.741 0.233755 58.711C0.239748 58.6751 0.245753 58.6331 0.263735 58.6211C0.20979 58.6271 0.185804 58.705 0.215773 58.747L0.33566 58.759C0.377617 58.8549 0.263723 58.777 0.269717 58.8669C0.173814 58.8669 0.155837 58.7829 0.143849 58.705C0.131861 58.771 0.0599329 58.8369 0.16183 58.8669C0.119872 58.9268 0.0419577 58.8549 0 58.9268C0.0299697 58.9807 0.119864 59.0587 0.0599249 59.1186H0.0419437C-0.0659474 59.2685 0.185797 59.3584 0.077906 59.4902L0.0479436 59.4723C-0.0119959 59.5202 0.0659334 59.6221 0 59.706C0.0179818 59.682 0.089899 59.6641 0.101887 59.718C0.0359535 59.8139 0.0959025 59.8918 0.0179811 59.9578L0.113887 60.0357C0.0839168 60.3893 0.179817 61.7919 0.185811 62.1455L0.173811 62.1336C0.203781 62.679 0.167831 63.7879 0.281716 64.3513C0.185813 64.4352 0.203781 64.5551 0.173811 64.645C0.215769 64.5971 0.281711 64.615 0.275717 64.651C0.257735 64.9147 0.341652 64.669 0.371622 64.9387C0.449543 65.2504 0.317664 66.4372 0.227755 66.7129C0.359622 66.8628 0.251744 67.0486 0.33566 67.1924L0.305679 67.1745C0.353631 67.3303 0.197784 68.2114 0.245736 68.3912L0.269717 68.3673C0.353632 68.5291 0.1978 68.4991 0.149849 68.625C0.305691 68.613 0.389596 68.7509 0.401584 68.8048L0.365622 68.7988C0.389598 68.8768 0.52147 69.0626 0.539452 69.1884L0.455528 69.1765C0.545437 69.2904 0.497483 69.4881 0.509471 69.5661C0.467513 69.7399 0.311674 70.0036 0.419565 70.2494L0.173811 70.3872L0.197792 70.4112C0.197792 70.4112 3.11684 70.8368 3.7522 70.5551L3.83612 70.567L3.83012 70.5011C3.87208 70.4292 3.77619 70.3872 3.86011 70.3992L3.84811 70.5011C3.87208 70.4232 3.92003 70.4831 3.96199 70.5131C3.97398 70.4831 3.97998 70.4532 4.00995 70.4292C3.97998 70.4112 3.97397 70.4352 3.95599 70.4472C3.92602 70.4052 3.84811 70.3453 3.89007 70.2973C3.90206 70.2194 4.02793 70.2973 4.03992 70.2074C4.11784 69.7279 4.23172 69.2664 4.22573 68.7748C4.26169 68.7629 4.26168 68.7809 4.27367 68.7928C4.2437 68.643 4.26169 68.5111 4.22573 68.3793C4.26768 68.3433 4.31563 68.3373 4.35159 68.3253C4.27967 68.3792 4.29167 67.618 4.30965 67.606Z" />
<path d="M45.4961 18.1256C45.592 18.0956 45.5981 18.0297 45.616 17.9697C45.5261 18.0117 45.4842 18.0596 45.4961 18.1256Z" />
<path d="M41.8066 6.08984C41.8066 6.10783 41.8066 6.11981 41.8126 6.13779C41.8126 6.1258 41.8126 6.10783 41.8066 6.08984Z" />
<path d="M45.9712 15.0269L45.8214 15.0149C45.8214 14.8711 45.9952 14.979 45.9652 14.8411C45.7495 14.7812 45.9952 14.6193 45.8813 14.5714C45.8993 14.5714 45.9053 14.5054 45.9772 14.5114C45.8573 14.4875 45.9532 14.4455 45.9233 14.4035C45.8933 14.3856 45.8873 14.4155 45.8513 14.4215L45.8154 14.3256C45.8514 14.2897 45.9233 14.2837 45.9353 14.3256C45.9832 14.0799 46.133 12.8931 46.0791 12.6233C45.9892 12.6533 46.0491 12.7372 45.9053 12.7672C45.8274 12.6953 45.9353 12.6653 45.8513 12.6293C46.0611 12.6054 45.9053 12.4735 46.1211 12.4255L46.0012 12.4016L46.0731 12.3656C45.9592 12.0539 46.0132 12.2877 46.0491 12.0239C46.0372 11.8741 45.8753 11.7962 45.9353 11.7123C45.9353 11.7243 45.8573 11.7602 45.8334 11.7183C45.9353 11.7123 45.7614 11.6104 45.8693 11.5924C45.8573 11.5564 45.8753 11.4246 45.7315 11.4665C45.8034 11.4425 45.8334 11.3347 45.8933 11.4006C45.8993 11.3646 45.9233 11.3286 45.8933 11.2987L45.8513 11.3466C45.8334 11.2148 45.9472 11.1488 45.8214 11.0649L45.7614 11.1129C45.7554 11.0349 45.7435 10.969 45.8873 10.945L45.9293 11.023C45.9293 10.8971 45.9233 10.8192 45.8513 10.7113L45.8453 10.7472C45.7075 10.6094 45.6116 9.8961 45.4437 9.76423L45.3359 9.81817L45.246 9.71029C45.246 9.72227 45.5996 9.77622 45.5636 9.78221C45.5576 9.55444 45.5097 8.34966 45.5876 8.13987C45.6535 8.05596 45.7614 8.13387 45.7794 8.13387C45.7434 8.02598 45.6655 8.08592 45.6775 7.99601C45.6955 7.97203 45.7614 8.008 45.7794 8.01999C45.7674 7.97803 45.8094 7.94806 45.7554 7.94206C45.7135 7.99002 45.5816 7.96004 45.4917 7.97803L45.5097 7.86414L45.5936 7.87014C45.5996 7.84616 45.3598 7.79222 45.4138 7.68433C45.4557 7.49852 45.4318 7.28873 45.4557 7.10291C45.5037 7.10891 45.5337 7.15086 45.5636 7.19282C45.5696 7.16884 45.5576 7.12689 45.5936 7.10291C45.5037 7.14487 45.5337 7.01901 45.4977 7.05497C45.2939 6.90512 45.4857 6.73129 45.3478 6.59943C45.162 6.57545 42.1411 6.16187 41.9193 6.1319C41.9253 6.09593 41.9313 6.05398 41.9493 6.04199C41.8953 6.04799 41.8714 6.1259 41.8953 6.16786L42.0152 6.17984C42.0572 6.27574 41.9433 6.19782 41.9493 6.28773C41.8534 6.28773 41.8354 6.20382 41.8294 6.1259C41.8174 6.19183 41.7455 6.25776 41.8474 6.28773C41.8054 6.34767 41.7275 6.27574 41.6855 6.34767C41.7155 6.40162 41.8054 6.47954 41.7455 6.53948H41.7275C41.6196 6.68933 41.8714 6.77924 41.7635 6.9111L41.7335 6.89312C41.6736 6.94107 41.7515 7.03699 41.6855 7.1269C41.7095 7.10292 41.7755 7.08493 41.7875 7.13888C41.7215 7.23478 41.7814 7.3127 41.7035 7.37863L41.7994 7.45656C41.7695 7.8102 41.8654 9.21278 41.8714 9.56642L41.8594 9.55444C41.8893 10.0999 41.8534 11.2088 41.9673 11.7722C41.8714 11.8561 41.8893 11.976 41.8594 12.0659C41.9013 12.018 41.9673 12.0359 41.9613 12.0719C41.9433 12.3416 42.0272 12.0899 42.0572 12.3596C42.1351 12.6713 42.0032 13.8581 41.9133 14.1338C42.0452 14.2837 41.9373 14.4695 42.0212 14.6133L41.9912 14.5954C42.0392 14.7512 41.8833 15.6323 41.9313 15.8121L41.9493 15.7881C42.0332 15.95 41.8773 15.92 41.8294 16.0459C41.9852 16.0339 42.0692 16.1718 42.0811 16.2257L42.0452 16.2197C42.0692 16.2976 42.201 16.4834 42.219 16.6093L42.1351 16.5973C42.225 16.7112 42.177 16.909 42.189 16.9869C42.1471 17.1608 41.9912 17.4245 42.0991 17.6703L41.8534 17.8081L41.8774 17.8321C41.8774 17.8321 44.7964 18.2576 45.4318 17.9759L45.5157 17.9879L45.5037 17.922C45.5456 17.8501 45.4498 17.8081 45.5337 17.8201L45.5217 17.922C45.5516 17.8441 45.5936 17.904 45.6416 17.934C45.6476 17.904 45.6595 17.874 45.6895 17.8501C45.6595 17.8321 45.6535 17.8561 45.6356 17.868C45.6056 17.8261 45.5277 17.7661 45.5696 17.7182C45.5816 17.6403 45.7075 17.7182 45.7195 17.6283C45.7974 17.1488 45.9113 16.6872 45.9053 16.1957C45.9413 16.1838 45.9412 16.2017 45.9532 16.2137C45.9233 16.0639 45.9353 15.932 45.9053 15.8001C45.9413 15.7642 45.9952 15.7582 46.0312 15.7462C45.9353 15.8001 45.9532 15.0389 45.9712 15.0269Z" />
<path d="M33.5699 24.815C33.6658 24.785 33.6778 24.7191 33.6898 24.6592C33.6059 24.7011 33.5639 24.7431 33.5699 24.815Z" />
<path d="M29.876 12.7734C29.876 12.7914 29.882 12.8094 29.882 12.8274C29.888 12.8094 29.888 12.7914 29.876 12.7734Z" />
<path d="M34.0489 21.7162L33.8931 21.6983C33.8931 21.5544 34.0669 21.6623 34.0369 21.5304C33.8211 21.4705 34.0669 21.3087 33.953 21.2607C33.971 21.2607 33.977 21.1948 34.0489 21.2008C33.935 21.1768 34.0249 21.1288 33.995 21.0869C33.965 21.0689 33.959 21.0989 33.923 21.1109L33.8811 21.0149C33.923 20.979 33.989 20.973 34.0009 21.0149C34.0489 20.7692 34.1988 19.5824 34.1448 19.3187C34.0549 19.3486 34.1148 19.4325 33.971 19.4625C33.8931 19.3906 34.001 19.3606 33.917 19.3246C34.1268 19.3007 33.971 19.1688 34.1868 19.1209L34.0669 19.0969L34.1388 19.0609C34.0249 18.7492 34.0789 18.983 34.1148 18.7193C34.1028 18.5634 33.941 18.4915 34.0009 18.4076C34.0009 18.4196 33.923 18.4555 33.8991 18.4136C34.001 18.4076 33.8271 18.3057 33.935 18.2877C33.923 18.2458 33.941 18.1199 33.7972 18.1618C33.8691 18.1439 33.899 18.03 33.959 18.0959C33.965 18.0599 33.989 18.024 33.953 17.994L33.911 18.042C33.8931 17.9101 34.007 17.8442 33.8811 17.7602L33.8211 17.8082C33.8151 17.7303 33.8031 17.6643 33.947 17.6404L33.989 17.7183C33.989 17.5924 33.983 17.5145 33.911 17.4066L33.905 17.4426C33.7672 17.3047 33.6713 16.5914 33.5035 16.4595L33.3956 16.5135L33.3056 16.4056C33.3056 16.4176 33.6593 16.4715 33.6233 16.4775C33.6173 16.2498 33.5694 15.045 33.6473 14.8352C33.7072 14.7513 33.8211 14.8292 33.8391 14.8292C33.8032 14.7213 33.7252 14.7812 33.7372 14.6913C33.7552 14.6674 33.8211 14.6973 33.8391 14.7153C33.8271 14.6794 33.8691 14.6434 33.8151 14.6374C33.7732 14.6853 33.6413 14.6554 33.5514 14.6734L33.5634 14.5595L33.6473 14.5715C33.6473 14.5475 33.4135 14.4935 33.4675 14.3856C33.5095 14.1998 33.4855 13.9901 33.5094 13.7982C33.5634 13.8042 33.5874 13.8462 33.6173 13.8882C33.6233 13.8642 33.6113 13.8222 33.6473 13.7982C33.5574 13.8402 33.5874 13.7143 33.5514 13.7503C33.3476 13.6004 33.5394 13.4266 33.4016 13.2947C33.2157 13.2708 30.1948 12.8572 29.973 12.8272C29.979 12.7853 29.985 12.7493 30.003 12.7373C29.949 12.7433 29.9251 12.8212 29.955 12.8632L30.0749 12.8752C30.1169 12.9711 30.003 12.8931 30.009 12.9831C29.9131 12.9831 29.8951 12.8992 29.8831 12.8212C29.8711 12.8872 29.7992 12.9531 29.9011 12.9831C29.8591 13.043 29.7812 12.9711 29.7393 13.043C29.7632 13.0969 29.8591 13.1749 29.7992 13.2348H29.7812C29.6733 13.3787 29.9191 13.4746 29.8172 13.6064L29.7872 13.5885C29.7273 13.6364 29.8052 13.7383 29.7393 13.8222C29.7572 13.7982 29.8292 13.7803 29.8411 13.8342C29.7752 13.9361 29.8352 14.008 29.7572 14.074L29.8531 14.1519C29.8232 14.5055 29.9191 15.9081 29.9251 16.2677L29.9071 16.2558C29.9431 16.7952 29.9011 17.9101 30.015 18.4735C29.9191 18.5574 29.9371 18.6773 29.9071 18.7672C29.949 18.7193 30.015 18.7373 30.009 18.7732C29.991 19.037 30.0749 18.7912 30.1049 19.0609C30.1828 19.3726 30.0509 20.5594 29.961 20.8351C30.0929 20.985 29.985 21.1708 30.0689 21.3146L30.039 21.2967C30.0869 21.4525 29.9311 22.3336 29.979 22.5134L30.003 22.4895C30.0869 22.6513 29.9311 22.6213 29.8831 22.7472C30.0389 22.7412 30.1229 22.8791 30.1349 22.927L30.0989 22.921C30.1229 22.9989 30.2547 23.1848 30.2727 23.3106L30.1888 23.2986C30.2787 23.4125 30.2368 23.6103 30.2427 23.6883C30.2008 23.8621 30.045 24.1258 30.1528 24.3716L29.9071 24.5094L29.9311 24.5334C29.9311 24.5334 32.8501 24.959 33.4855 24.6773L33.5694 24.6892L33.5634 24.6233C33.6054 24.5514 33.5094 24.5094 33.5934 24.5154L33.5814 24.6173C33.6054 24.5394 33.6533 24.5993 33.7012 24.6293C33.7132 24.5993 33.7192 24.5694 33.7492 24.5454C33.7192 24.5274 33.7133 24.5514 33.6953 24.5634C33.6653 24.5214 33.5874 24.4615 33.6293 24.4075C33.6413 24.3296 33.7672 24.4135 33.7792 24.3176C33.8571 23.8381 33.971 23.3766 33.965 22.8851C34.0009 22.8731 34.001 22.8911 34.0129 22.903C33.977 22.7532 33.995 22.6213 33.965 22.4895C34.0069 22.4535 34.0549 22.4475 34.0909 22.4355C34.0129 22.4895 34.0249 21.7282 34.0489 21.7162Z" />
<path d="M34.2585 86.4088C34.3544 86.3788 34.3663 86.3129 34.3783 86.2529C34.2884 86.2949 34.2525 86.3428 34.2585 86.4088Z" />
<path d="M30.5645 74.373C30.5645 74.391 30.5705 74.403 30.5705 74.421C30.5705 74.409 30.5704 74.391 30.5645 74.373Z" />
<path d="M34.7307 83.3101L34.5748 83.2982C34.5748 83.1543 34.7487 83.2622 34.7187 83.1243C34.5029 83.0644 34.7487 82.9025 34.6348 82.8546C34.6528 82.8546 34.6588 82.7887 34.7307 82.7947C34.6168 82.7707 34.7067 82.7287 34.6767 82.6868C34.6468 82.6688 34.6408 82.6987 34.6048 82.7047L34.5628 82.6088C34.6048 82.5729 34.6707 82.5669 34.6827 82.6088C34.7307 82.3631 34.8805 81.1763 34.8266 80.9065C34.7367 80.9365 34.7966 81.0205 34.6528 81.0504C34.5748 80.9785 34.6827 80.9485 34.5988 80.9125C34.8086 80.8886 34.6528 80.7567 34.8625 80.7088L34.7427 80.6848L34.8146 80.6488C34.7007 80.3371 34.7547 80.5709 34.7906 80.3071C34.7786 80.1513 34.6168 80.0794 34.6767 79.9955C34.6767 80.0075 34.6048 80.0434 34.5748 80.0015C34.6767 79.9955 34.5029 79.8936 34.6108 79.8756C34.5988 79.8396 34.6168 79.7078 34.4729 79.7497C34.5449 79.7257 34.5748 79.6179 34.6348 79.6838C34.6408 79.6478 34.6647 79.6119 34.6288 79.5819L34.5868 79.6298C34.5688 79.504 34.6827 79.432 34.5569 79.3481L34.4969 79.3961C34.4909 79.3182 34.4789 79.2522 34.6228 79.2282L34.6647 79.3062C34.6647 79.1803 34.6588 79.1024 34.5868 78.9945L34.5808 79.0304C34.443 78.8926 34.3471 78.1793 34.1792 78.0475L34.0714 78.1014L33.9814 77.9935C33.9814 78.0055 34.3351 78.0594 34.2991 78.0654C34.2931 77.8376 34.2452 76.6329 34.3231 76.4231C34.383 76.3392 34.4969 76.4171 34.5149 76.4171C34.4789 76.3092 34.401 76.3691 34.413 76.2792C34.431 76.2553 34.4969 76.2912 34.5149 76.3032C34.5029 76.2612 34.5449 76.2313 34.4909 76.2253C34.449 76.2732 34.3171 76.2432 34.2272 76.2612L34.2392 76.1473L34.3231 76.1533C34.3291 76.1294 34.0893 76.0754 34.1433 75.9675C34.1852 75.7817 34.1613 75.5719 34.1852 75.3861C34.2392 75.3921 34.2632 75.4341 34.2931 75.476C34.2991 75.452 34.2871 75.4101 34.3231 75.3861C34.2332 75.4281 34.2631 75.3022 34.2272 75.3382C34.0234 75.1883 34.2152 75.0145 34.0773 74.8826C33.8915 74.8587 30.8706 74.4451 30.6488 74.4151C30.6548 74.3792 30.6608 74.3372 30.6788 74.3252C30.6248 74.3312 30.6008 74.4091 30.6308 74.4511L30.7507 74.463C30.7927 74.5589 30.6788 74.4811 30.6848 74.571C30.5889 74.571 30.5709 74.487 30.5589 74.4091C30.5469 74.4751 30.475 74.541 30.5769 74.571C30.5349 74.6309 30.457 74.559 30.415 74.6309C30.439 74.6848 30.5349 74.7628 30.475 74.8227H30.457C30.3491 74.9726 30.5949 75.0625 30.493 75.1943L30.463 75.1763C30.403 75.2243 30.481 75.3202 30.415 75.4101C30.433 75.3861 30.5049 75.3682 30.5169 75.4221C30.451 75.518 30.5109 75.5959 30.433 75.6618L30.5289 75.7398C30.499 76.0934 30.5949 77.496 30.6009 77.8496L30.5829 77.8376C30.6188 78.3831 30.5769 79.492 30.6908 80.0554C30.5949 80.1393 30.6128 80.2592 30.5829 80.3491C30.6248 80.3012 30.6908 80.3191 30.6848 80.3551C30.6668 80.6188 30.7507 80.3731 30.7807 80.6428C30.8586 80.9545 30.7267 82.1413 30.6368 82.417C30.7687 82.5669 30.6608 82.7527 30.7447 82.8965L30.7147 82.8786C30.7627 83.0344 30.6068 83.9155 30.6548 84.0953L30.6788 84.0714C30.7627 84.2332 30.6068 84.2032 30.5589 84.3291C30.7147 84.3171 30.7987 84.455 30.8106 84.5089L30.7747 84.5029C30.7987 84.5808 30.9305 84.7667 30.9485 84.8985L30.8646 84.8865C30.9545 85.0004 30.9125 85.1982 30.9185 85.2762C30.8766 85.45 30.7207 85.7137 30.8286 85.9595L30.5829 86.0973L30.6068 86.1213C30.6068 86.1213 33.5259 86.5469 34.1613 86.2651L34.2452 86.2771L34.2392 86.2112C34.2811 86.1393 34.1852 86.0973 34.2691 86.1093L34.2572 86.2112C34.2811 86.1333 34.3291 86.1932 34.377 86.2232C34.389 86.1932 34.395 86.1633 34.425 86.1393C34.395 86.1213 34.389 86.1453 34.371 86.1572C34.3411 86.1153 34.2631 86.0554 34.3051 86.0074C34.3171 85.9295 34.443 86.0074 34.455 85.9175C34.5329 85.438 34.6468 84.9765 34.6408 84.4849C34.6767 84.473 34.6767 84.4909 34.6887 84.5029C34.6528 84.3531 34.6707 84.2212 34.6408 84.0893C34.6827 84.0534 34.7307 84.0474 34.7667 84.0354C34.6947 84.0834 34.7127 83.3221 34.7307 83.3101Z" />
<path d="M31.7711 51.464C31.867 51.428 31.879 51.3501 31.897 51.2842C31.8011 51.3321 31.7651 51.3861 31.7711 51.464Z" />
<path d="M28.1914 37.5283C28.1914 37.5463 28.1914 37.5643 28.1974 37.5882C28.1974 37.5643 28.2034 37.5463 28.1914 37.5283Z" />
<path d="M32.2684 47.8798L32.1126 47.8618C32.1126 47.694 32.2924 47.8199 32.2565 47.6641C32.0407 47.5981 32.2864 47.4063 32.1725 47.3524C32.1905 47.3524 32.1965 47.2804 32.2684 47.2864C32.1486 47.2565 32.2445 47.2085 32.2145 47.1606C32.1845 47.1426 32.1785 47.1725 32.1426 47.1845L32.1066 47.0766C32.1486 47.0347 32.2145 47.0287 32.2265 47.0766C32.2804 46.7949 32.4303 45.4223 32.3823 45.1106C32.2924 45.1466 32.3464 45.2485 32.2085 45.2785C32.1306 45.1945 32.2385 45.1586 32.1605 45.1226C32.3703 45.0986 32.2145 44.9488 32.4303 44.8948L32.3104 44.8709L32.3823 44.8349C32.2684 44.4813 32.3284 44.757 32.3643 44.4453C32.3524 44.2655 32.1905 44.1756 32.2565 44.0737C32.2565 44.0857 32.1785 44.1276 32.1545 44.0797C32.2564 44.0737 32.0826 43.9538 32.1905 43.9358C32.1785 43.8879 32.1965 43.744 32.0527 43.786C32.1246 43.762 32.1605 43.6301 32.2145 43.714C32.2205 43.6721 32.2445 43.6241 32.2145 43.5942L32.1725 43.6481C32.1545 43.4983 32.2684 43.4203 32.1426 43.3184L32.0826 43.3724C32.0766 43.2825 32.0706 43.2105 32.2085 43.1746L32.2505 43.2645C32.2505 43.1146 32.2445 43.0247 32.1725 42.8989L32.1665 42.9408C32.0347 42.779 31.9448 41.9458 31.7769 41.796L31.663 41.8619L31.5731 41.73C31.5731 41.742 31.9268 41.808 31.8908 41.814C31.8908 41.5442 31.8549 40.1416 31.9388 39.9019C32.0047 39.806 32.1126 39.8899 32.1306 39.8959C32.0946 39.77 32.0167 39.836 32.0287 39.7341C32.0527 39.7041 32.1126 39.746 32.1306 39.764C32.1186 39.7161 32.1605 39.6741 32.1066 39.6681C32.0646 39.7221 31.9328 39.6921 31.8429 39.7101L31.8608 39.5782L31.9448 39.5902C31.9507 39.5602 31.717 39.5003 31.7649 39.3744C31.8069 39.1526 31.7889 38.9129 31.8189 38.6911C31.8668 38.6971 31.8968 38.7451 31.9268 38.793C31.9328 38.763 31.9208 38.7151 31.9568 38.6911C31.8668 38.7391 31.8968 38.5952 31.8608 38.6312C31.6571 38.4574 31.8548 38.2595 31.717 38.1037C31.5312 38.0797 28.5102 37.6062 28.2885 37.5882C28.2945 37.5463 28.3004 37.4983 28.3184 37.4863C28.2645 37.4923 28.2405 37.5822 28.2645 37.6302L28.3843 37.6422C28.4203 37.7561 28.3124 37.6661 28.3184 37.768C28.2225 37.768 28.2045 37.6721 28.1985 37.5822C28.1865 37.6602 28.1086 37.7321 28.2165 37.774C28.1746 37.846 28.0966 37.7561 28.0547 37.846C28.0787 37.9119 28.1746 37.9958 28.1146 38.0677H28.0966C27.9888 38.2356 28.2345 38.3435 28.1326 38.4993L28.1026 38.4813C28.0427 38.5353 28.1146 38.6491 28.0547 38.751C28.0787 38.7211 28.1446 38.7031 28.1566 38.763C28.0907 38.8769 28.1506 38.9608 28.0727 39.0448L28.1626 39.1287C28.1326 39.5363 28.2105 41.1546 28.2105 41.5682L28.1985 41.5502C28.2225 42.1736 28.1746 43.4623 28.2825 44.1096C28.1866 44.2055 28.2045 44.3434 28.1746 44.4453C28.2165 44.3913 28.2825 44.4093 28.2765 44.4573C28.2525 44.775 28.3424 44.4813 28.3724 44.7989C28.4503 45.1706 28.3064 46.5492 28.2165 46.8729C28.3484 47.0467 28.2405 47.2625 28.3184 47.4363L28.2885 47.4183C28.3364 47.6041 28.1746 48.6231 28.2165 48.8389L28.2405 48.8089C28.3184 48.9947 28.1686 48.9647 28.1206 49.1086C28.2765 49.0966 28.3604 49.2585 28.3724 49.3184L28.3364 49.3124C28.3604 49.4023 28.4863 49.6181 28.5042 49.7679L28.4203 49.7559C28.5102 49.8818 28.4623 50.1156 28.4683 50.2115C28.4263 50.4153 28.2705 50.7269 28.3724 51.0087L28.1266 51.1705L28.1506 51.2005C28.1506 51.2005 31.0696 51.668 31.705 51.3324L31.7889 51.3444L31.7829 51.2724C31.8249 51.1885 31.729 51.1406 31.8129 51.1525L31.8009 51.2724C31.8309 51.1825 31.8728 51.2484 31.9208 51.2844C31.9328 51.2484 31.9388 51.2125 31.9687 51.1825C31.9388 51.1645 31.9328 51.1945 31.9148 51.2065C31.8848 51.1585 31.8069 51.0866 31.8489 51.0327C31.8608 50.9427 31.9867 51.0327 31.9987 50.9308C32.0826 50.3793 32.1965 49.8399 32.1965 49.2764C32.2325 49.2644 32.2325 49.2824 32.2445 49.3004C32.2145 49.1266 32.2325 48.9767 32.1965 48.8209C32.2385 48.7789 32.2864 48.7729 32.3224 48.7609C32.2265 48.7729 32.2445 47.8978 32.2684 47.8798Z" />
<path d="M6.20122 28.4894C6.29713 28.4534 6.30313 28.3755 6.32111 28.3096C6.2312 28.3575 6.18924 28.4115 6.20122 28.4894Z" />
<path d="M2.62305 14.5537C2.62305 14.5717 2.62305 14.5897 2.62905 14.6137C2.62905 14.5957 2.62904 14.5777 2.62305 14.5537Z" />
<path d="M6.69422 24.9111L6.53837 24.8931C6.53837 24.7253 6.7182 24.8512 6.68223 24.6953C6.46645 24.6294 6.71219 24.4376 6.59831 24.3836C6.61629 24.3836 6.62229 24.3117 6.69422 24.3177C6.57434 24.2877 6.67024 24.2398 6.64027 24.1918C6.6103 24.1738 6.60431 24.2038 6.56835 24.2158L6.53238 24.1079C6.56835 24.0659 6.64026 24.0599 6.65225 24.1079C6.7002 23.8262 6.85605 22.4536 6.8081 22.1419C6.71819 22.1778 6.77813 22.2797 6.63427 22.3097C6.55635 22.2258 6.66425 22.1898 6.58633 22.1539C6.79612 22.1299 6.64028 21.9801 6.85606 21.9261L6.73618 21.9021L6.8081 21.8662C6.70021 21.5125 6.74816 21.7882 6.79012 21.4766C6.77813 21.2967 6.6163 21.2068 6.68223 21.1049C6.68223 21.1169 6.6043 21.1589 6.58033 21.1109C6.68223 21.1049 6.5084 20.9851 6.61629 20.9671C6.6043 20.9191 6.6223 20.7753 6.47844 20.8172C6.55037 20.7933 6.58033 20.6614 6.64027 20.7453C6.64627 20.7033 6.67024 20.6554 6.64027 20.6254L6.59831 20.6794C6.58033 20.5295 6.69422 20.4516 6.56835 20.3497L6.5084 20.4036C6.50241 20.3137 6.49641 20.2358 6.63427 20.2058L6.67623 20.2958C6.67623 20.1459 6.67024 20.056 6.60431 19.9301L6.59831 19.9721C6.46644 19.8102 6.37654 18.9771 6.20871 18.8272L6.10082 18.8932L6.01091 18.7613C6.01091 18.7733 6.35856 18.8392 6.32859 18.8452C6.32859 18.5755 6.29262 17.1729 6.37654 16.9331C6.44247 16.8372 6.55037 16.9211 6.56835 16.9271C6.53238 16.8013 6.45445 16.8672 6.46644 16.7653C6.48442 16.7353 6.55037 16.7773 6.56835 16.7953C6.55636 16.7473 6.59831 16.7054 6.54437 16.6994C6.50241 16.7533 6.37054 16.7233 6.28063 16.7413L6.29861 16.6095L6.38254 16.6215C6.38853 16.5915 6.15476 16.5315 6.20271 16.4057C6.24466 16.1839 6.22669 15.9441 6.25067 15.7224C6.29862 15.7284 6.32859 15.7763 6.35856 15.8243C6.36455 15.7943 6.35255 15.7463 6.38852 15.7224C6.29861 15.7703 6.33459 15.6265 6.29263 15.6624C6.08884 15.4886 6.28662 15.2908 6.14876 15.135C5.96295 15.111 2.94799 14.6375 2.72022 14.6195C2.72622 14.5775 2.73222 14.5296 2.7502 14.5176C2.69626 14.5236 2.66629 14.6135 2.69626 14.6614L2.81613 14.6734C2.85209 14.7873 2.74421 14.6974 2.7502 14.7993C2.6543 14.7993 2.63631 14.7034 2.63032 14.6135C2.61833 14.6914 2.54041 14.7633 2.6483 14.8053C2.60634 14.8772 2.52843 14.7873 2.48647 14.8772C2.51044 14.9432 2.60635 15.0271 2.54641 15.099H2.52843C2.42054 15.2668 2.66628 15.3747 2.55839 15.5306L2.52843 15.5126C2.46849 15.5665 2.54041 15.6804 2.48047 15.7823C2.49845 15.7523 2.57039 15.7344 2.58237 15.7943C2.51644 15.9082 2.57637 15.9921 2.49845 16.076L2.58836 16.1599C2.55239 16.5675 2.63632 18.1859 2.63632 18.5995L2.62432 18.5815C2.64829 19.2048 2.60035 20.4936 2.70824 21.1409C2.61234 21.2368 2.63032 21.3747 2.60036 21.4766C2.64231 21.4226 2.70824 21.4406 2.70224 21.4885C2.67827 21.8062 2.76818 21.5125 2.79815 21.8302C2.87007 22.2018 2.73221 23.5804 2.6423 23.9041C2.77417 24.0779 2.66629 24.2937 2.7502 24.4675L2.72022 24.4496C2.76817 24.6354 2.60634 25.6543 2.6483 25.8701L2.66628 25.8402C2.7502 26.026 2.59436 25.996 2.54641 26.1399C2.70225 26.1279 2.78616 26.2897 2.79815 26.3496L2.76219 26.3436C2.78616 26.4336 2.91203 26.6493 2.93002 26.7992L2.84611 26.7872C2.93602 26.9131 2.88806 27.1468 2.89405 27.2427C2.8521 27.4465 2.69625 27.7582 2.79815 28.0399L2.55239 28.2018L2.57637 28.2317C2.57637 28.2317 5.49542 28.6993 6.13078 28.3636L6.21471 28.3756L6.20271 28.3037C6.24466 28.2197 6.14877 28.1718 6.23269 28.1838L6.22069 28.3037C6.25066 28.2138 6.29262 28.2797 6.34057 28.3156C6.34657 28.2797 6.35855 28.2437 6.38852 28.2138C6.35855 28.1958 6.35256 28.2258 6.33457 28.2377C6.3046 28.1898 6.22669 28.1179 6.26865 28.0639C6.28064 27.974 6.40651 28.0639 6.4185 27.962C6.50241 27.4106 6.61629 26.8711 6.61629 26.3077C6.65225 26.2957 6.65226 26.3137 6.66425 26.3316C6.63428 26.1578 6.65225 26.008 6.61629 25.8521C6.65825 25.8102 6.70621 25.8042 6.74218 25.7922C6.65826 25.8042 6.67623 24.9231 6.69422 24.9111Z" />
<path d="M68.5143 30.4259C68.6102 30.39 68.6222 30.312 68.6402 30.2461C68.5443 30.294 68.5083 30.348 68.5143 30.4259Z" />
<path d="M64.9336 16.4902C64.9336 16.5082 64.9336 16.5262 64.9396 16.5502C64.9396 16.5322 64.9396 16.5082 64.9336 16.4902Z" />
<path d="M69.0055 26.8473L68.8556 26.8294C68.8556 26.6615 69.0354 26.7874 68.9995 26.6316C68.7837 26.5656 69.0295 26.3738 68.9156 26.3199C68.9336 26.3199 68.9455 26.248 69.0115 26.254C68.8916 26.23 68.9875 26.176 68.9575 26.1281C68.9275 26.1101 68.9216 26.1401 68.8856 26.152L68.8496 26.0442C68.8916 26.0022 68.9575 25.9962 68.9695 26.0382C69.0235 25.7564 69.1733 24.3838 69.1253 24.0721C69.0354 24.1081 69.0954 24.204 68.9515 24.24C68.8736 24.1561 68.9815 24.1201 68.9036 24.0841C69.1134 24.0601 68.9575 23.9103 69.1733 23.8564L69.0534 23.8324L69.1253 23.7964C69.0175 23.4428 69.0714 23.7125 69.1074 23.4068C69.0954 23.227 68.9335 23.1371 68.9995 23.0412C68.9995 23.0532 68.9216 23.0951 68.8976 23.0472C68.9995 23.0412 68.8257 22.9213 68.9336 22.9033C68.9216 22.8554 68.9395 22.7115 68.7957 22.7595C68.8676 22.7355 68.9036 22.6036 68.9575 22.6875C68.9635 22.6456 68.9875 22.6036 68.9575 22.5677L68.9156 22.6216C68.8976 22.4718 69.0115 22.3938 68.8856 22.2919L68.8256 22.3459C68.8197 22.256 68.8137 22.1781 68.9515 22.1481L68.9935 22.244C68.9935 22.0941 68.9875 22.0042 68.9156 21.8784L68.9096 21.9203C68.7777 21.7585 68.6878 20.9253 68.52 20.7755L68.4121 20.8354L68.3222 20.7095C68.3222 20.7215 68.6758 20.7815 68.6398 20.7935C68.6398 20.5237 68.6039 19.1211 68.6878 18.8754C68.7537 18.7795 68.8616 18.8634 68.8796 18.8694C68.8436 18.7495 68.7657 18.8094 68.7777 18.7076C68.7957 18.6776 68.8616 18.7196 68.8796 18.7375C68.8676 18.6896 68.9096 18.6536 68.8556 18.6476C68.8137 18.7016 68.6818 18.6716 68.5919 18.6896L68.6099 18.5577L68.6938 18.5697C68.6998 18.5397 68.46 18.4798 68.514 18.3539C68.5559 18.1381 68.5379 17.8924 68.5679 17.6706C68.6159 17.6766 68.6458 17.7245 68.6758 17.7725C68.6818 17.7425 68.6698 17.6946 68.7058 17.6706C68.6159 17.7186 68.6518 17.5747 68.6099 17.6107C68.4061 17.4368 68.6039 17.233 68.466 17.0832C68.2802 17.0592 65.2593 16.5857 65.0375 16.5677C65.0435 16.5258 65.0495 16.4778 65.0674 16.4658C65.0135 16.4718 64.9835 16.5617 65.0135 16.6097L65.1334 16.6277C65.1693 16.7355 65.0615 16.6516 65.0674 16.7535C64.9715 16.7535 64.9536 16.6516 64.9476 16.5677C64.9356 16.6456 64.8576 16.7176 64.9655 16.7535C64.9236 16.8255 64.8457 16.7415 64.8037 16.8255C64.8277 16.8914 64.9236 16.9813 64.8637 17.0472H64.8457C64.7378 17.2151 64.9835 17.323 64.8816 17.4788L64.8517 17.4608C64.7917 17.5148 64.8637 17.6287 64.8037 17.7306C64.8277 17.7006 64.8936 17.6826 64.9056 17.7425C64.8397 17.8564 64.8996 17.9403 64.8217 18.0243L64.9116 18.1082C64.8756 18.5157 64.9596 20.1341 64.9596 20.5477L64.9476 20.5297C64.9715 21.1591 64.9236 22.4418 65.0315 23.0891C64.9356 23.185 64.9536 23.3229 64.9236 23.4308C64.9656 23.3708 65.0315 23.3948 65.0255 23.4428C65.0015 23.7605 65.0914 23.4668 65.1214 23.7904C65.1933 24.1621 65.0555 25.5407 64.9655 25.8643C65.0974 26.0441 64.9895 26.2539 65.0734 26.4278L65.0435 26.4098C65.0914 26.5956 64.9296 27.6206 64.9715 27.8303L64.9955 27.8004C65.0734 27.9862 64.9236 27.9562 64.8756 28.1001C65.0315 28.0881 65.1154 28.2499 65.1274 28.3099L65.0914 28.3039C65.1154 28.3938 65.2413 28.6096 65.2593 28.7594L65.1753 28.7474C65.2652 28.8793 65.2173 29.1131 65.2233 29.203C65.1813 29.4068 65.0255 29.7185 65.1274 30.0002L64.8816 30.162L64.9056 30.186C64.9056 30.186 67.8247 30.6535 68.46 30.3238L68.5439 30.3358L68.5379 30.2639C68.5799 30.18 68.484 30.132 68.5679 30.144L68.5559 30.2639C68.5859 30.174 68.6278 30.2399 68.6758 30.2759C68.6878 30.2399 68.6938 30.2039 68.7238 30.174C68.6938 30.156 68.6878 30.186 68.6698 30.198C68.6398 30.15 68.5619 30.0781 68.6039 30.0241C68.6159 29.9342 68.7417 30.0241 68.7537 29.9222C68.8376 29.3708 68.9515 28.8313 68.9515 28.2679C68.9875 28.2559 68.9875 28.2739 68.9995 28.2919C68.9695 28.1181 68.9875 27.9682 68.9515 27.8124C68.9935 27.7704 69.0414 27.7584 69.0774 27.7464C68.9695 27.7404 68.9875 26.8593 69.0055 26.8473Z" />
<path d="M63.5309 53.7482C63.6268 53.7122 63.6388 53.6343 63.6568 53.5684C63.5609 53.6163 63.5249 53.6703 63.5309 53.7482Z" />
<path d="M59.9502 39.8125C59.9502 39.8305 59.9502 39.8485 59.9562 39.8724C59.9562 39.8545 59.9562 39.8305 59.9502 39.8125Z" />
<path d="M64.0221 50.1696L63.8722 50.1516C63.8722 49.9838 64.052 50.1097 64.0161 49.9538C63.8003 49.8879 64.0461 49.6961 63.9322 49.6421C63.9502 49.6421 63.9621 49.5702 64.0281 49.5762C63.9082 49.5522 64.0041 49.4983 63.9741 49.4503C63.9441 49.4323 63.9382 49.4623 63.9022 49.4743L63.8662 49.3664C63.9082 49.3245 63.9741 49.3185 63.9861 49.3604C64.0401 49.0787 64.1899 47.7061 64.1419 47.3944C64.052 47.4304 64.112 47.5263 63.9681 47.5622C63.8902 47.4783 63.9981 47.4424 63.9202 47.4064C64.13 47.3824 63.9741 47.2326 64.1899 47.1786L64.07 47.1547L64.1419 47.1187C64.0341 46.765 64.088 47.0348 64.124 46.7291C64.112 46.5493 63.9501 46.4594 64.0161 46.3634C64.0161 46.3754 63.9382 46.4174 63.9142 46.3694C64.0161 46.3635 63.8423 46.2436 63.9502 46.2256C63.9382 46.1776 63.9561 46.0338 63.8123 46.0817C63.8842 46.0578 63.9202 45.9259 63.9741 46.0098C63.9801 45.9679 64.0041 45.9259 63.9741 45.8899L63.9322 45.9439C63.9142 45.794 64.0281 45.7161 63.9022 45.6142L63.8422 45.6681C63.8363 45.5782 63.8303 45.5003 63.9681 45.4704L64.0101 45.5663C64.0101 45.4164 64.0041 45.3265 63.9322 45.2006L63.9262 45.2426C63.7943 45.0807 63.7044 44.2476 63.5366 44.0977L63.4287 44.1577L63.3388 44.0318C63.3388 44.0438 63.6924 44.1037 63.6564 44.1157C63.6564 43.846 63.6205 42.4434 63.7044 42.1976C63.7703 42.1017 63.8782 42.1857 63.8962 42.1917C63.8602 42.0718 63.7823 42.1317 63.7943 42.0298C63.8123 41.9998 63.8782 42.0418 63.8962 42.0598C63.8842 42.0118 63.9262 41.9759 63.8722 41.9699C63.8303 42.0238 63.6984 41.9939 63.6085 42.0118L63.6265 41.88L63.7104 41.892C63.7164 41.862 63.4766 41.802 63.5306 41.6762C63.5725 41.4604 63.5545 41.2147 63.5845 40.9929C63.6325 40.9989 63.6624 41.0468 63.6924 41.0948C63.6984 41.0648 63.6864 41.0169 63.7224 40.9929C63.6325 41.0408 63.6684 40.897 63.6265 40.9329C63.4227 40.7591 63.6205 40.5553 63.4826 40.4055C63.2968 40.3815 60.2759 39.908 60.0541 39.89C60.0601 39.848 60.0661 39.8001 60.084 39.7881C60.0301 39.7941 60.0001 39.884 60.0301 39.9319L60.15 39.9499C60.1859 40.0578 60.0781 39.9739 60.084 40.0758C59.9881 40.0758 59.9702 39.9739 59.9642 39.89C59.9522 39.9679 59.8743 40.0398 59.9821 40.0758C59.9402 40.1477 59.8623 40.0638 59.8203 40.1477C59.8443 40.2137 59.9402 40.3036 59.8803 40.3695H59.8623C59.7544 40.5373 60.0001 40.6452 59.8982 40.8011L59.8683 40.7831C59.8083 40.837 59.8803 40.9509 59.8203 41.0528C59.8443 41.0228 59.9102 41.0049 59.9222 41.0648C59.8563 41.1787 59.9162 41.2626 59.8383 41.3465L59.9282 41.4304C59.8922 41.838 59.9762 43.4564 59.9762 43.87L59.9642 43.852C59.9881 44.4813 59.9402 45.7641 60.0481 46.4114C59.9522 46.5073 59.9702 46.6452 59.9402 46.7531C59.9822 46.6931 60.0481 46.7171 60.0421 46.7651C60.0181 47.0827 60.108 46.789 60.138 47.1127C60.2099 47.4843 60.0721 48.8629 59.9821 49.1866C60.114 49.3664 60.0061 49.5762 60.09 49.75L60.0601 49.732C60.108 49.9179 59.9462 50.9428 59.9881 51.1526L60.0121 51.1226C60.09 51.3085 59.9402 51.2785 59.8922 51.4223C60.0481 51.4104 60.132 51.5722 60.144 51.6321L60.108 51.6261C60.132 51.716 60.2579 51.9318 60.2759 52.0817L60.1919 52.0697C60.2818 52.2016 60.2339 52.4353 60.2399 52.5252C60.1979 52.729 60.0421 53.0407 60.144 53.3224L59.8982 53.4843L59.9222 53.5082C59.9222 53.5082 62.8413 53.9758 63.4766 53.6461L63.5605 53.6581L63.5546 53.5862C63.5965 53.5022 63.5006 53.4543 63.5845 53.4663L63.5725 53.5862C63.6025 53.4962 63.6444 53.5622 63.6924 53.5982C63.7044 53.5622 63.7104 53.5262 63.7404 53.4962C63.7104 53.4783 63.7044 53.5082 63.6864 53.5202C63.6564 53.4723 63.5785 53.4003 63.6205 53.3464C63.6325 53.2565 63.7583 53.3464 63.7703 53.2445C63.8542 52.6931 63.9681 52.1536 63.9681 51.5902C64.0041 51.5782 64.0041 51.5962 64.0161 51.6142C63.9861 51.4403 64.0041 51.2905 63.9681 51.1346C64.0101 51.0927 64.058 51.0807 64.094 51.0687C63.9861 51.0627 64.0041 50.1816 64.0221 50.1696Z" />
<path d="M20.3624 36.9584C20.4523 36.9285 20.4642 36.8625 20.4822 36.8086C20.3923 36.8446 20.3504 36.8925 20.3624 36.9584Z" />
<path d="M16.2637 25.4922C16.2637 25.5102 16.2697 25.5222 16.2697 25.5401C16.2757 25.5282 16.2757 25.5102 16.2637 25.4922Z" />
<path d="M20.7999 33.9199L20.644 33.9079C20.644 33.7641 20.8179 33.872 20.7879 33.7401C20.5721 33.6862 20.8119 33.5243 20.698 33.4764C20.716 33.4764 20.722 33.4164 20.7939 33.4164C20.674 33.3984 20.7699 33.3505 20.7399 33.3085C20.704 33.2965 20.704 33.3205 20.668 33.3325L20.626 33.2426C20.668 33.2066 20.7339 33.2006 20.7459 33.2366C20.7939 32.9969 20.9257 31.828 20.8718 31.5703C20.7819 31.6063 20.8418 31.6842 20.698 31.7141C20.6201 31.6482 20.728 31.6122 20.644 31.5823C20.8538 31.5523 20.698 31.4264 20.9078 31.3725L20.7879 31.3545L20.8598 31.3185C20.7279 31.0188 20.7999 31.2526 20.8179 30.9889C20.7939 30.833 20.632 30.7671 20.686 30.6772C20.686 30.6892 20.6141 30.7251 20.5841 30.6832C20.686 30.6772 20.5062 30.5813 20.6141 30.5573C20.6021 30.5214 20.6081 30.3895 20.4702 30.4374C20.5421 30.4135 20.5661 30.2996 20.632 30.3655C20.638 30.3295 20.656 30.2936 20.626 30.2636L20.5901 30.3116C20.5661 30.1857 20.674 30.1138 20.5421 30.0298L20.4882 30.0778C20.4762 29.9999 20.4642 29.9399 20.6021 29.904L20.644 29.9819C20.638 29.856 20.6261 29.7781 20.5481 29.6762V29.7122C20.4043 29.5803 20.2724 28.879 20.0926 28.7591L19.9847 28.8191L19.8888 28.7172C19.8888 28.7292 20.2424 28.7591 20.2065 28.7711C20.1885 28.5433 20.0746 27.3565 20.1405 27.1468C20.2005 27.0628 20.3144 27.1288 20.3323 27.1288C20.2904 27.0269 20.2125 27.0868 20.2245 27.0029C20.2424 26.9789 20.3084 27.0029 20.3263 27.0209C20.3144 26.9849 20.3503 26.943 20.2964 26.943C20.2604 26.9909 20.1226 26.9789 20.0386 26.9969L20.0446 26.883H20.1286C20.1286 26.859 19.8948 26.8291 19.9367 26.7152C19.9667 26.5234 19.9308 26.3256 19.9487 26.1338C20.0027 26.1338 20.0327 26.1757 20.0626 26.2117C20.0626 26.1877 20.0506 26.1518 20.0866 26.1218C19.9967 26.1697 20.0267 26.0439 19.9847 26.0798C19.7749 25.948 19.9607 25.7681 19.8109 25.6483C19.6251 25.6423 16.5861 25.5104 16.3644 25.5224C16.3703 25.4864 16.3704 25.4505 16.3883 25.4385C16.3344 25.4505 16.3104 25.5224 16.3464 25.5643H16.4663C16.5082 25.6543 16.3943 25.5883 16.4063 25.6722C16.3104 25.6842 16.2864 25.6003 16.2744 25.5284C16.2625 25.5943 16.1965 25.6602 16.3044 25.6782C16.2625 25.7382 16.1845 25.6782 16.1426 25.7502C16.1725 25.7981 16.2684 25.864 16.2145 25.924H16.1965C16.1006 26.0738 16.3524 26.1398 16.2565 26.2716L16.2205 26.2596C16.1666 26.3076 16.2445 26.3975 16.1845 26.4814C16.2025 26.4574 16.2744 26.4335 16.2864 26.4814C16.2265 26.5773 16.2924 26.6433 16.2145 26.7152L16.3104 26.7811C16.2984 27.1168 16.4722 28.4354 16.4962 28.7651L16.4782 28.7531C16.5382 29.2626 16.5622 30.3175 16.706 30.845C16.6161 30.9289 16.6401 31.0368 16.6161 31.1267C16.6521 31.0788 16.724 31.0968 16.718 31.1327C16.712 31.3905 16.7839 31.1507 16.8319 31.4144C16.9158 31.7141 16.7959 32.859 16.712 33.1227C16.8499 33.2666 16.742 33.4404 16.8259 33.5843L16.7959 33.5663C16.8439 33.7161 16.706 34.5613 16.748 34.7411L16.766 34.7171C16.8499 34.873 16.7 34.843 16.6521 34.9629C16.8079 34.9509 16.8918 35.0887 16.9038 35.1367L16.8678 35.1307C16.8918 35.2086 17.0237 35.3824 17.0417 35.5083L16.9577 35.5023C17.0477 35.6102 17.0057 35.802 17.0117 35.8799C16.9757 36.0478 16.8199 36.2995 16.9278 36.5333L16.682 36.6652L16.706 36.6891C16.706 36.6891 19.6311 37.1087 20.2604 36.833L20.3443 36.845L20.3323 36.779C20.3743 36.7071 20.2784 36.6651 20.3623 36.6771L20.3503 36.779C20.3743 36.7071 20.4223 36.761 20.4702 36.791C20.4762 36.761 20.4882 36.7311 20.5182 36.7071C20.4882 36.6891 20.4822 36.7191 20.4642 36.7251C20.4342 36.6831 20.3563 36.6232 20.3983 36.5752C20.4103 36.4973 20.5361 36.5752 20.5481 36.4853C20.6201 36.0178 20.728 35.5623 20.716 35.0827C20.7519 35.0708 20.7519 35.0887 20.7639 35.1007C20.7279 34.9569 20.7459 34.831 20.71 34.6931C20.7459 34.6572 20.7999 34.6512 20.8358 34.6392C20.7759 34.6812 20.7819 33.9319 20.7999 33.9199Z" />
<path d="M44.2115 45.6861C44.3074 45.6441 44.3194 45.5662 44.3374 45.4883C44.2475 45.5482 44.2055 45.6022 44.2115 45.6861Z" />
<path d="M39.9326 31.3008C39.9386 31.3188 39.9386 31.3367 39.9446 31.3607C39.9386 31.3427 39.9386 31.3248 39.9326 31.3008Z" />
<path d="M44.7154 41.8382L44.5596 41.8262C44.5596 41.6464 44.7334 41.7783 44.6974 41.6105C44.4816 41.5445 44.7214 41.3347 44.6075 41.2808C44.6255 41.2808 44.6315 41.2029 44.6974 41.2089C44.5775 41.1849 44.6675 41.125 44.6375 41.077C44.6075 41.059 44.6015 41.089 44.5656 41.101L44.5236 40.9871C44.5596 40.9391 44.6315 40.9331 44.6435 40.9811C44.6854 40.6754 44.8053 39.2129 44.7454 38.8832C44.6555 38.9252 44.7154 39.0271 44.5776 39.069C44.4996 38.9851 44.6075 38.9432 44.5236 38.9012C44.7334 38.8652 44.5716 38.7094 44.7813 38.6435L44.6615 38.6195L44.7334 38.5715C44.6015 38.1939 44.6735 38.4876 44.6914 38.146C44.6675 37.9482 44.4996 37.8583 44.5596 37.7504C44.5596 37.7684 44.4876 37.8103 44.4577 37.7624C44.5596 37.7504 44.3798 37.6305 44.4817 37.6005C44.4697 37.5526 44.4757 37.3907 44.3378 37.4507C44.4097 37.4207 44.4337 37.2769 44.4996 37.3608C44.4996 37.3128 44.5236 37.2649 44.4877 37.2289L44.4517 37.2948C44.4277 37.133 44.5356 37.0371 44.4037 36.9352L44.3498 36.9951C44.3378 36.8992 44.3258 36.8153 44.4637 36.7734L44.5116 36.8753C44.5056 36.7134 44.4936 36.6175 44.4097 36.4856V36.5336C44.2659 36.3658 44.122 35.4727 43.9422 35.3228L43.8343 35.4007L43.7384 35.2689C43.7384 35.2809 44.0921 35.3168 44.0561 35.3348C44.0561 35.0471 43.8583 33.5246 43.9122 33.2489C43.9662 33.135 44.086 33.2189 44.098 33.2189C44.0501 33.0871 43.9782 33.171 43.9782 33.0571C43.9961 33.0211 44.0621 33.0571 44.08 33.0751C44.0621 33.0271 44.098 32.9792 44.0441 32.9792C44.0081 33.0451 43.8763 33.0271 43.7864 33.0571V32.9132H43.8703C43.8703 32.8773 43.6305 32.8473 43.6665 32.7035C43.6844 32.4577 43.6365 32.2 43.6365 31.9542C43.6904 31.9542 43.7204 32.0022 43.7564 32.0501C43.7564 32.0142 43.7384 31.9722 43.7744 31.9362C43.6905 32.0022 43.7084 31.8403 43.6725 31.8883C43.4507 31.7324 43.6245 31.4807 43.4747 31.3428C43.2889 31.3428 40.2439 31.3368 40.0282 31.3608C40.0282 31.3129 40.0282 31.2709 40.0461 31.2529C39.9922 31.2709 39.9742 31.3668 40.0102 31.4088L40.13 31.4028C40.178 31.5107 40.0581 31.4387 40.0761 31.5406C39.9802 31.5586 39.9502 31.4567 39.9382 31.3728C39.9322 31.4567 39.8663 31.5406 39.9742 31.5586C39.9382 31.6365 39.8543 31.5646 39.8184 31.6545C39.8543 31.7145 39.9502 31.7864 39.9023 31.8703H39.8843C39.7944 32.0561 40.0521 32.128 39.9622 32.3019L39.9262 32.2899C39.8723 32.3498 39.9562 32.4577 39.9083 32.5656C39.9262 32.5356 39.9922 32.5057 40.0102 32.5656C39.9562 32.6915 40.0221 32.7634 39.9562 32.8593L40.0581 32.9372C40.0581 33.3568 40.3458 34.9692 40.3518 35.4007L40.3338 35.3888C40.3998 36.0301 40.4297 37.3488 40.5856 38.0141C40.4957 38.116 40.5197 38.2599 40.4957 38.3677C40.5316 38.3078 40.5976 38.3258 40.5976 38.3737C40.5976 38.7034 40.6635 38.3977 40.7115 38.7274C40.8014 39.111 40.6935 40.5735 40.6155 40.9152C40.7534 41.101 40.6455 41.3228 40.7354 41.5026L40.6995 41.4846C40.7534 41.6764 40.6215 42.7613 40.6515 42.9831L40.6695 42.9531C40.7474 43.1449 40.5976 43.1149 40.5436 43.2648C40.6995 43.2468 40.7834 43.4206 40.7894 43.4806L40.7534 43.4746C40.7774 43.5705 40.9033 43.7923 40.9152 43.9481L40.8313 43.9361C40.9153 44.068 40.8673 44.3137 40.8733 44.4096C40.8313 44.6254 40.6695 44.9491 40.7714 45.2428L40.5196 45.4166L40.5436 45.4466C40.5436 45.4466 43.4627 45.9321 44.098 45.5725L44.182 45.5845L44.176 45.5065C44.2179 45.4166 44.122 45.3627 44.2119 45.3747L44.1939 45.5005C44.2239 45.4046 44.2659 45.4766 44.3078 45.5125C44.3198 45.4766 44.3318 45.4346 44.3558 45.4046C44.3258 45.3867 44.3198 45.4166 44.3018 45.4286C44.2719 45.3747 44.1939 45.3027 44.2359 45.2428C44.2479 45.1469 44.3738 45.2428 44.3857 45.1289C44.4757 44.5355 44.5955 43.9541 44.5955 43.3487C44.6315 43.3367 44.6315 43.3547 44.6435 43.3727C44.6135 43.1869 44.6315 43.025 44.6015 42.8572C44.6375 42.8093 44.6914 42.7973 44.7274 42.7853C44.7034 42.7853 44.6974 41.8502 44.7154 41.8382Z" />
<path d="M39.6373 64.9479C39.7332 64.9148 39.7452 64.8534 39.7632 64.792C39.6733 64.8392 39.6313 64.8817 39.6373 64.9479Z" />
<path d="M35.3584 53.6123C35.3644 53.6265 35.3644 53.6406 35.3704 53.6595C35.3644 53.6454 35.3644 53.6312 35.3584 53.6123Z" />
<path d="M40.1412 61.9156L39.9854 61.9061C39.9854 61.7644 40.1592 61.8683 40.1232 61.7361C39.9074 61.6841 40.1472 61.5188 40.0333 61.4763C40.0513 61.4763 40.0573 61.4149 40.1232 61.4196C40.0033 61.4007 40.0933 61.3535 40.0633 61.3157C40.0333 61.3015 40.0273 61.3252 39.9913 61.3346L39.9494 61.2449C39.9854 61.2071 40.0573 61.2023 40.0693 61.2401C40.1112 60.9992 40.2311 59.8468 40.1712 59.587C40.0813 59.62 40.1412 59.7003 40.0033 59.7334C39.9254 59.6673 40.0333 59.6342 39.9494 59.6011C40.1592 59.5728 39.9973 59.45 40.2071 59.398L40.0872 59.3791L40.1592 59.3414C40.0273 59.0438 40.0992 59.2752 40.1172 59.006C40.0932 58.8501 39.9254 58.7793 39.9854 58.6943C39.9854 58.7084 39.9134 58.7415 39.8835 58.7037C39.9853 58.6943 39.8055 58.5998 39.9074 58.5762C39.8954 58.5384 39.9014 58.4109 39.7636 58.4581C39.8355 58.4345 39.8595 58.3211 39.9254 58.3873C39.9254 58.3495 39.9494 58.3117 39.9134 58.2834L39.8775 58.3353C39.8535 58.2078 39.9614 58.1322 39.8295 58.0519L39.7756 58.0991C39.7636 58.0236 39.7516 57.9574 39.8895 57.9244L39.9374 58.0047C39.9314 57.8772 39.9194 57.8016 39.8355 57.6977V57.7354C39.6917 57.6032 39.5478 56.8994 39.368 56.7813L39.2601 56.8427L39.1642 56.7388C39.1642 56.7483 39.5178 56.7766 39.4819 56.7908C39.4819 56.5641 39.2841 55.3643 39.338 55.1471C39.3919 55.0573 39.5118 55.1235 39.5238 55.1235C39.4759 55.0195 39.4039 55.0857 39.4039 54.9959C39.4219 54.9676 39.4878 54.9959 39.5058 55.0101C39.4878 54.9723 39.5238 54.9345 39.4699 54.9345C39.4339 54.9865 39.302 54.9723 39.2121 54.9959V54.8826H39.2961C39.2961 54.8542 39.0563 54.8306 39.0922 54.7173C39.1102 54.5236 39.0623 54.3205 39.0623 54.1268C39.1162 54.1268 39.1462 54.1646 39.1822 54.2024C39.1822 54.1741 39.1642 54.141 39.2002 54.1127C39.1162 54.1646 39.1342 54.0371 39.0982 54.0749C38.8765 53.9521 39.0503 53.7537 38.9005 53.6451C38.7146 53.6451 35.6697 53.6403 35.4539 53.6592C35.4539 53.6214 35.4539 53.5884 35.4719 53.5742C35.418 53.5884 35.4 53.664 35.436 53.697L35.5558 53.6923C35.6038 53.7773 35.4839 53.7206 35.5019 53.8009C35.406 53.8151 35.376 53.7348 35.364 53.6687C35.358 53.7348 35.2921 53.8009 35.4 53.8151C35.364 53.8765 35.2801 53.8198 35.2441 53.8907C35.2801 53.9379 35.376 53.9946 35.328 54.0607H35.3101C35.2202 54.2071 35.4779 54.2638 35.388 54.4008L35.352 54.3913C35.2981 54.4386 35.382 54.5236 35.334 54.6086C35.352 54.585 35.418 54.5614 35.436 54.6086C35.382 54.7078 35.4479 54.7645 35.382 54.8401L35.4839 54.9015C35.4839 55.2321 35.7716 56.5027 35.7776 56.8427L35.7596 56.8333C35.8255 57.3387 35.8555 58.3778 36.0114 58.9021C35.9215 58.9824 35.9454 59.0958 35.9215 59.1808C35.9574 59.1335 36.0233 59.1477 36.0233 59.1855C36.0233 59.4453 36.0893 59.2044 36.1372 59.4642C36.2271 59.7665 36.1192 60.919 36.0413 61.1882C36.1792 61.3346 36.0713 61.5094 36.1612 61.6511L36.1253 61.6369C36.1792 61.788 36.0473 62.643 36.0773 62.8177L36.0953 62.7941C36.1732 62.9452 36.0233 62.9216 35.9694 63.0397C36.1252 63.0255 36.2092 63.1625 36.2152 63.2098L36.1792 63.205C36.2032 63.2806 36.329 63.4554 36.341 63.5782L36.2571 63.5687C36.341 63.6726 36.2931 63.8663 36.2991 63.9419C36.2571 64.1119 36.0953 64.367 36.1972 64.5984L35.9454 64.7354L35.9694 64.759C35.9694 64.759 38.8885 65.1416 39.5238 64.8582L39.6077 64.8676L39.6017 64.8062C39.6437 64.7354 39.5478 64.6929 39.6377 64.7023L39.6197 64.8015C39.6497 64.7259 39.6916 64.7826 39.7336 64.8109C39.7456 64.7826 39.7576 64.7495 39.7816 64.7259C39.7516 64.7118 39.7456 64.7354 39.7276 64.7448C39.6976 64.7023 39.6197 64.6456 39.6617 64.5984C39.6737 64.5228 39.7995 64.5984 39.8115 64.5087C39.9014 64.0411 40.0213 63.5829 40.0213 63.1058C40.0573 63.0964 40.0573 63.1106 40.0693 63.1247C40.0393 62.9783 40.0573 62.8508 40.0273 62.7185C40.0633 62.6807 40.1172 62.6713 40.1532 62.6618C40.1292 62.6618 40.1232 61.925 40.1412 61.9156Z" />
<path d="M45.9532 85.9594C46.0491 85.9174 46.0611 85.8395 46.079 85.7676C45.9831 85.8155 45.9412 85.8755 45.9532 85.9594Z" />
<path d="M41.6699 71.5732C41.6699 71.5912 41.6759 71.6092 41.6819 71.6332C41.6819 71.6092 41.6819 71.5912 41.6699 71.5732Z" />
<path d="M46.4579 82.1048L46.302 82.0929C46.302 81.913 46.4759 82.0449 46.4399 81.8771C46.2241 81.8111 46.4639 81.6073 46.35 81.5474C46.368 81.5474 46.374 81.4695 46.4399 81.4755C46.32 81.4515 46.4099 81.3916 46.38 81.3436C46.35 81.3256 46.344 81.3556 46.308 81.3736L46.2661 81.2537C46.308 81.2057 46.374 81.1997 46.386 81.2477C46.4279 80.942 46.5478 79.4795 46.4879 79.1498C46.3979 79.1918 46.4579 79.2937 46.32 79.3296C46.2421 79.2457 46.35 79.2038 46.2661 79.1678C46.4759 79.1319 46.314 78.976 46.5238 78.9101L46.4039 78.8861L46.4759 78.8441C46.338 78.4605 46.4159 78.7602 46.4279 78.4186C46.4039 78.2208 46.2361 78.1308 46.296 78.023C46.296 78.0409 46.2241 78.0829 46.1941 78.035C46.296 78.023 46.1162 77.9031 46.2181 77.8731C46.2001 77.8252 46.2121 77.6633 46.0743 77.7173C46.1462 77.6873 46.1702 77.5435 46.2301 77.6274C46.2361 77.5794 46.2541 77.5314 46.2181 77.4955L46.1822 77.5554C46.1582 77.3936 46.2661 77.2977 46.1342 77.1958L46.0803 77.2557C46.0683 77.1598 46.0563 77.0759 46.1941 77.034L46.2421 77.1359C46.2361 76.974 46.2241 76.8781 46.1402 76.7403V76.7882C45.9963 76.6204 45.8525 75.7273 45.6727 75.5774L45.5648 75.6554L45.4689 75.5235C45.4689 75.5415 45.8225 75.5714 45.7866 75.5894C45.7866 75.3017 45.5888 73.7792 45.6427 73.5035C45.6967 73.3896 45.8105 73.4736 45.8285 73.4736C45.7806 73.3417 45.7086 73.4256 45.7086 73.3117C45.7266 73.2817 45.7926 73.3117 45.8105 73.3297C45.7926 73.2818 45.8285 73.2338 45.7746 73.2338C45.7386 73.2997 45.6008 73.2818 45.5168 73.3177V73.1739H45.6007C45.6007 73.1379 45.361 73.1079 45.397 72.9641C45.4149 72.7243 45.367 72.4606 45.367 72.2208C45.4209 72.2208 45.4509 72.2688 45.4869 72.3167C45.4869 72.2808 45.4689 72.2328 45.5048 72.2029C45.4209 72.2688 45.4389 72.1069 45.403 72.1549C45.1812 71.9931 45.355 71.7473 45.2051 71.6095C45.0193 71.6095 41.9744 71.6034 41.7586 71.6274C41.7586 71.5795 41.7586 71.5315 41.7766 71.5195C41.7227 71.5375 41.7047 71.6274 41.7406 71.6754L41.8605 71.6694C41.9085 71.7773 41.7946 71.7053 41.8066 71.8132C41.7107 71.8312 41.6807 71.7293 41.6687 71.6454C41.6627 71.7233 41.5968 71.8073 41.7047 71.8312C41.6687 71.9091 41.5848 71.8372 41.5488 71.9271C41.5848 71.9871 41.6807 72.059 41.6328 72.1369H41.6148C41.5249 72.3227 41.7826 72.3946 41.6927 72.5625L41.6567 72.5505C41.6028 72.6104 41.6867 72.7183 41.6388 72.8262C41.6567 72.7962 41.7227 72.7603 41.7406 72.8262C41.6867 72.9521 41.7526 73.03 41.6867 73.1199L41.7886 73.1978C41.7886 73.6174 42.0763 75.2298 42.0823 75.6613L42.0643 75.6434C42.1303 76.2847 42.1602 77.6034 42.3161 78.2687C42.2261 78.3766 42.2501 78.5145 42.2261 78.6223C42.2621 78.5624 42.3281 78.5804 42.3281 78.6283C42.3281 78.952 42.394 78.6463 42.4419 78.982C42.5318 79.3596 42.424 80.8282 42.346 81.1638C42.4839 81.3496 42.376 81.5714 42.4659 81.7512L42.4359 81.7332C42.4839 81.925 42.358 83.0099 42.388 83.2317L42.406 83.2017C42.4839 83.3995 42.334 83.3696 42.2801 83.5134C42.4359 83.5014 42.5199 83.6633 42.5258 83.7292L42.4899 83.7232C42.5139 83.8191 42.6397 84.0409 42.6577 84.1968L42.5738 84.1908C42.6577 84.3226 42.6158 84.5684 42.6218 84.6643C42.5798 84.88 42.418 85.2037 42.5199 85.4974L42.2681 85.6712L42.2921 85.7012C42.2921 85.7012 45.2111 86.1867 45.8465 85.8271L45.9304 85.8391L45.9244 85.7612C45.9724 85.6713 45.8705 85.6173 45.9604 85.6293L45.9424 85.7552C45.9724 85.6593 46.0143 85.7312 46.0623 85.7672C46.0743 85.7252 46.0863 85.6892 46.1102 85.6593C46.0803 85.6353 46.0743 85.6713 46.0563 85.6832C46.0263 85.6293 45.9484 85.5574 45.9903 85.4914C46.0023 85.3955 46.1282 85.4914 46.1402 85.3775C46.2301 84.7781 46.35 84.2027 46.35 83.5974C46.386 83.5854 46.3859 83.6033 46.3979 83.6213C46.368 83.4355 46.386 83.2737 46.356 83.1058C46.3979 83.0639 46.4459 83.0519 46.4819 83.0339C46.4459 83.0579 46.4399 82.1228 46.4579 82.1048Z" />
<path d="M54.2809 65.9634C54.3708 65.9095 54.3768 65.8376 54.3887 65.7656C54.2988 65.8256 54.2629 65.8855 54.2809 65.9634Z" />
<path d="M50.7734 51.4043C50.7734 51.4223 50.7734 51.4462 50.7734 51.4702C50.7734 51.4462 50.7794 51.4223 50.7734 51.4043Z" />
<path d="M54.4552 62.3489L54.2994 62.3429C54.2994 62.1751 54.4732 62.289 54.4373 62.1391C54.2215 62.0792 54.4612 61.8814 54.3474 61.8275C54.3653 61.8275 54.3713 61.7496 54.4373 61.7555C54.3174 61.7316 54.4133 61.6776 54.3833 61.6297C54.3534 61.6117 54.3474 61.6416 54.3114 61.6536L54.2694 61.5457C54.3054 61.5038 54.3773 61.4918 54.3893 61.5397C54.4373 61.252 54.5632 59.8794 54.5032 59.5677C54.4133 59.6037 54.4732 59.6996 54.3294 59.7356C54.2515 59.6517 54.3594 59.6157 54.2754 59.5797C54.4852 59.5558 54.3294 59.3999 54.5392 59.346L54.4193 59.316L54.4912 59.28C54.3773 58.9144 54.4313 59.1961 54.4792 58.8784C54.4732 58.6926 54.3174 58.5967 54.3833 58.4948C54.3833 58.5068 54.3054 58.5488 54.2814 58.4948C54.3833 58.4948 54.2155 58.363 54.3234 58.345C54.3114 58.297 54.3354 58.1472 54.1915 58.1891C54.2634 58.1652 54.2994 58.0333 54.3594 58.1172C54.3654 58.0693 54.3893 58.0273 54.3594 57.9913L54.3174 58.0513C54.3054 57.8954 54.4253 57.8175 54.2994 57.7096L54.2395 57.7636C54.2395 57.6677 54.2335 57.5897 54.3713 57.5657L54.4073 57.6617C54.4133 57.5058 54.4133 57.4159 54.3474 57.278L54.3414 57.326C54.2155 57.1522 54.1556 56.2831 53.9937 56.1152L53.8798 56.1752L53.7959 56.0373C53.7959 56.0553 54.1436 56.1332 54.1076 56.1392C54.0956 55.8575 54.1855 54.395 54.2874 54.1492C54.3593 54.0533 54.4612 54.1492 54.4792 54.1492C54.4553 54.0174 54.3713 54.0833 54.3953 53.9754C54.4193 53.9454 54.4792 53.9934 54.4912 54.0113C54.4852 53.9634 54.5272 53.9214 54.4732 53.9155C54.4253 53.9694 54.2934 53.9274 54.2035 53.9454L54.2335 53.8076L54.3174 53.8255C54.3234 53.7956 54.0956 53.7177 54.1556 53.5858C54.2215 53.358 54.2155 53.1063 54.2635 52.8785C54.3114 52.8905 54.3354 52.9385 54.3594 52.9924C54.3654 52.9624 54.3593 52.9144 54.4013 52.8905C54.3054 52.9324 54.3534 52.7826 54.3114 52.8245C54.1256 52.6267 54.3414 52.4349 54.2155 52.2671C54.0297 52.2312 51.0627 51.5119 50.8409 51.4819C50.8529 51.434 50.8589 51.386 50.8769 51.374C50.8229 51.38 50.787 51.4699 50.8109 51.5239L50.9308 51.5478C50.9608 51.6677 50.8589 51.5658 50.8529 51.6797C50.757 51.6737 50.745 51.5658 50.751 51.4699C50.727 51.5538 50.6491 51.6258 50.751 51.6737C50.703 51.7456 50.6371 51.6497 50.5832 51.7396C50.6071 51.8116 50.6911 51.9075 50.6251 51.9794L50.6071 51.9734C50.4873 52.1472 50.721 52.2791 50.6011 52.4349L50.5712 52.411C50.5112 52.4649 50.5712 52.5908 50.4993 52.6927C50.5232 52.6627 50.5952 52.6447 50.6011 52.7107C50.5232 52.8305 50.5772 52.9204 50.4873 53.0044L50.5712 53.1003C50.5112 53.5378 50.4153 55.2641 50.4273 55.7136L50.4153 55.6956C50.4153 56.373 50.3134 57.7516 50.3974 58.4529C50.2955 58.5548 50.3074 58.7046 50.2715 58.8185C50.3134 58.7586 50.3794 58.7825 50.3734 58.8305C50.3434 59.1722 50.4333 58.8545 50.4693 59.2021C50.5532 59.6037 50.4393 61.1322 50.3554 61.4858C50.4933 61.6776 50.3854 61.9174 50.4693 62.1032L50.4393 62.0852C50.4693 62.1871 50.4333 62.5168 50.4273 62.8584C50.4273 63.2001 50.4333 63.5477 50.4633 63.6616L50.4813 63.6317C50.5832 63.8295 50.4273 63.8114 50.3914 63.9733C50.5472 63.9433 50.6431 64.1112 50.6611 64.1771H50.6251C50.6551 64.279 50.8049 64.4948 50.8409 64.6566H50.757C50.8589 64.7885 50.8349 65.0522 50.8529 65.1481C50.8349 65.3759 50.709 65.7415 50.8409 66.0352L50.6131 66.257L50.6371 66.287C50.6371 66.287 53.5741 66.281 54.1735 65.8434L54.2575 65.8374L54.2395 65.7655C54.2754 65.6756 54.1735 65.6456 54.2575 65.6396V65.7595C54.2754 65.6696 54.3234 65.7235 54.3773 65.7535C54.3833 65.7175 54.3893 65.6816 54.4133 65.6456C54.3773 65.6336 54.3773 65.6636 54.3594 65.6756C54.3234 65.6336 54.2395 65.5737 54.2754 65.5137C54.2754 65.4238 54.4133 65.4958 54.4133 65.3879C54.4433 64.8245 54.5092 64.285 54.4552 63.7275C54.4912 63.7096 54.4912 63.7275 54.5092 63.7455C54.4613 63.5777 54.4672 63.4278 54.4193 63.278C54.4553 63.236 54.5092 63.2241 54.5392 63.2061C54.4792 63.236 54.4193 62.3669 54.4552 62.3489Z" />
<path d="M67.4244 78.9527C67.5143 78.8987 67.5203 78.8268 67.5323 78.7549C67.4424 78.8148 67.4064 78.8747 67.4244 78.9527Z" />
<path d="M63.917 64.3936C63.917 64.4115 63.917 64.4355 63.917 64.4595C63.917 64.4355 63.923 64.4115 63.917 64.3936Z" />
<path d="M67.5988 75.3382L67.443 75.3322C67.443 75.1644 67.6168 75.2782 67.5808 75.1284C67.365 75.0685 67.6048 74.8707 67.4909 74.8167C67.5089 74.8167 67.5149 74.7388 67.5808 74.7448C67.4609 74.7208 67.5568 74.6669 67.5269 74.6189C67.4969 74.6009 67.4909 74.6309 67.455 74.6429L67.413 74.535C67.449 74.493 67.5209 74.481 67.5329 74.529C67.5808 74.2413 67.7067 72.8687 67.6468 72.557C67.5569 72.593 67.6168 72.6889 67.4729 72.7248C67.395 72.6409 67.5029 72.605 67.419 72.569C67.6288 72.545 67.4729 72.3892 67.6827 72.3352L67.5628 72.3053L67.6348 72.2693C67.5209 71.9037 67.5748 72.1854 67.6228 71.8677C67.6168 71.6819 67.4609 71.586 67.5269 71.4841C67.5269 71.4961 67.449 71.538 67.425 71.4841C67.5269 71.4841 67.359 71.3522 67.4669 71.3342C67.4549 71.2863 67.4789 71.1364 67.3351 71.1784C67.407 71.1544 67.443 71.0226 67.5029 71.1065C67.5089 71.0585 67.5329 71.0166 67.5029 70.9806L67.461 71.0405C67.449 70.8847 67.5688 70.8068 67.443 70.6989L67.383 70.7528C67.383 70.6569 67.377 70.579 67.5149 70.555L67.5509 70.6509C67.5569 70.4951 67.5569 70.4052 67.4909 70.2673L67.4849 70.3153C67.359 70.1414 67.2991 69.2723 67.1373 69.1045L67.0234 69.1644L66.9395 69.0266C66.9395 69.0445 67.2871 69.1225 67.2512 69.1285C67.2392 68.8468 67.3291 67.3842 67.431 67.1385C67.5029 67.0426 67.6048 67.1385 67.6228 67.1385C67.5988 67.0066 67.5149 67.0725 67.5389 66.9646C67.5629 66.9347 67.6228 66.9826 67.6348 67.0006C67.6288 66.9526 67.6707 66.9107 67.6168 66.9047C67.5688 66.9587 67.437 66.9167 67.3471 66.9347L67.377 66.7968L67.461 66.8148C67.4669 66.7848 67.2392 66.7069 67.2991 66.5751C67.365 66.3473 67.3591 66.0955 67.407 65.8678C67.455 65.8798 67.4789 65.9277 67.5029 65.9817C67.5089 65.9517 67.5029 65.9037 67.5449 65.8797C67.449 65.9217 67.4969 65.7718 67.455 65.8138C67.2691 65.616 67.4849 65.4242 67.3591 65.2564C67.1732 65.2204 64.2062 64.5011 63.9845 64.4712C63.9964 64.4232 64.0024 64.3753 64.0204 64.3633C63.9665 64.3693 63.9305 64.4592 63.9545 64.5131L64.0744 64.5371C64.1043 64.657 64.0024 64.5551 63.9965 64.669C63.9005 64.663 63.8886 64.5551 63.8945 64.4592C63.8706 64.5431 63.7927 64.615 63.8945 64.663C63.8466 64.7349 63.7807 64.639 63.7267 64.7289C63.7507 64.8008 63.8346 64.8967 63.7687 64.9687L63.7507 64.9627C63.6308 65.1365 63.8646 65.2683 63.7447 65.4242L63.7147 65.4002C63.6548 65.4542 63.7147 65.5801 63.6428 65.682C63.6668 65.652 63.7387 65.634 63.7447 65.6999C63.6668 65.8198 63.7207 65.9097 63.6308 65.9936L63.7147 66.0895C63.6548 66.5271 63.5589 68.2533 63.5709 68.7029L63.5589 68.6849C63.5589 69.3622 63.457 70.7408 63.5409 71.4421C63.439 71.544 63.451 71.6939 63.415 71.8078C63.457 71.7478 63.5229 71.7718 63.5169 71.8198C63.487 72.1614 63.5769 71.8437 63.6128 72.1914C63.6967 72.593 63.5829 74.1214 63.4989 74.4751C63.6368 74.6669 63.5289 74.9066 63.6128 75.0924L63.5829 75.0745C63.6128 75.1764 63.5769 75.506 63.5709 75.8477C63.5709 76.1893 63.5769 76.537 63.6068 76.6509L63.6248 76.6209C63.7267 76.8187 63.5709 76.8007 63.5349 76.9625C63.6907 76.9326 63.7867 77.1004 63.8046 77.1664H63.7687C63.7986 77.2682 63.9485 77.484 63.9845 77.6459H63.9005C64.0024 77.7777 63.9785 78.0415 63.9965 78.1374C63.9785 78.3651 63.8526 78.7308 63.9845 79.0245L63.7567 79.2462L63.7807 79.2762C63.7807 79.2762 66.7177 79.2702 67.3171 78.8326L67.401 78.8267L67.383 78.7548C67.419 78.6649 67.3171 78.6349 67.401 78.6289V78.7488C67.419 78.6589 67.467 78.7128 67.5209 78.7428C67.5269 78.7068 67.5329 78.6708 67.5569 78.6349C67.5209 78.6229 67.5209 78.6529 67.5029 78.6648C67.467 78.6229 67.383 78.5629 67.419 78.503C67.419 78.4131 67.5569 78.485 67.5569 78.3771C67.5868 77.8137 67.6528 77.2742 67.5988 76.7168C67.6348 76.6988 67.6348 76.7168 67.6528 76.7348C67.6048 76.5669 67.6108 76.4171 67.5628 76.2673C67.5988 76.2253 67.6528 76.2133 67.6827 76.1953C67.6228 76.2253 67.5628 75.3562 67.5988 75.3382Z" />
<path d="M55.7681 33.8832C55.864 33.8533 55.882 33.7933 55.9 33.7334C55.8041 33.7694 55.7621 33.8173 55.7681 33.8832Z" />
<path d="M52.5322 21.6982L52.5382 21.7402C52.5442 21.7282 52.5442 21.7102 52.5322 21.6982Z" />
<path d="M56.4819 30.7906L56.332 30.7606C56.35 30.6108 56.5119 30.7367 56.4939 30.5928C56.2841 30.5149 56.5418 30.365 56.4339 30.3051C56.4519 30.3051 56.4639 30.2392 56.5298 30.2511C56.416 30.2152 56.5119 30.1792 56.4879 30.1313C56.4579 30.1133 56.4519 30.1373 56.416 30.1493L56.386 30.0474C56.4279 30.0114 56.4999 30.0114 56.5059 30.0534C56.5838 29.8076 56.8235 28.5609 56.7996 28.2731C56.7097 28.2971 56.7576 28.393 56.6137 28.411C56.5418 28.3271 56.6497 28.3031 56.5718 28.2611C56.7816 28.2552 56.6377 28.1053 56.8535 28.0694L56.7396 28.0394L56.8175 28.0094C56.7276 27.6678 56.7636 27.9255 56.8175 27.6378C56.8115 27.464 56.6557 27.3681 56.7276 27.2782C56.7276 27.2901 56.6497 27.3261 56.6257 27.2782C56.7276 27.2782 56.5598 27.1583 56.6677 27.1403C56.6557 27.0983 56.6857 26.9605 56.5358 26.9904C56.6078 26.9725 56.6497 26.8526 56.7037 26.9305C56.7096 26.8885 56.7336 26.8526 56.7097 26.8166L56.6677 26.8646C56.6617 26.7207 56.7756 26.6548 56.6557 26.5469L56.5958 26.5948C56.5958 26.5109 56.5898 26.439 56.7336 26.415L56.7696 26.5049C56.7756 26.3611 56.7756 26.2772 56.7097 26.1573L56.7037 26.1992C56.5838 26.0434 56.4999 25.2342 56.338 25.0904L56.2241 25.1503L56.1402 25.0244C56.1402 25.0364 56.4879 25.1024 56.4519 25.1083C56.4519 24.9825 56.4519 24.5749 56.4579 24.1793C56.4459 23.7657 56.4399 23.3581 56.4759 23.2382C56.5358 23.1363 56.6497 23.2142 56.6677 23.2202C56.6257 23.0944 56.5538 23.1723 56.5598 23.0644C56.5778 23.0344 56.6437 23.0704 56.6617 23.0824C56.6497 23.0404 56.6857 22.9925 56.6377 22.9925C56.5958 23.0524 56.4639 23.0284 56.374 23.0524L56.386 22.9205L56.4699 22.9265C56.4699 22.8966 56.2361 22.8606 56.2841 22.7287C56.326 22.519 56.2601 22.2552 56.2601 22.0214C56.3141 22.0214 56.35 22.0694 56.38 22.1174C56.38 22.0874 56.362 22.0394 56.392 22.0035C56.3081 22.0694 56.32 21.9076 56.2901 21.9555C56.0623 21.8057 56.2301 21.5659 56.0743 21.434C55.8825 21.4221 52.8615 21.6498 52.6458 21.7098C52.6458 21.6738 52.6458 21.6438 52.6637 21.6318C52.6158 21.6498 52.5918 21.7158 52.6278 21.7457L52.7477 21.7277C52.7956 21.7997 52.6817 21.7577 52.6937 21.8356C52.5978 21.8536 52.5678 21.7877 52.5559 21.7337C52.5499 21.7877 52.4839 21.8536 52.5918 21.8596C52.5558 21.9136 52.4719 21.8716 52.436 21.9375C52.4659 21.9735 52.5678 22.0215 52.5139 22.0754H52.4959C52.406 22.2073 52.6637 22.2432 52.5738 22.3691L52.5379 22.3631C52.4839 22.4051 52.5678 22.477 52.5199 22.5489C52.5379 22.5249 52.6038 22.507 52.6218 22.5489C52.5678 22.6328 52.6398 22.6808 52.5619 22.7587L52.6577 22.8187C52.6458 23.1423 52.7896 24.455 52.7596 24.8326L52.7477 24.8206C52.7776 25.3481 52.6817 26.469 52.7596 27.0504C52.6577 27.1283 52.6697 27.2482 52.6338 27.3381C52.6757 27.2901 52.7417 27.3141 52.7357 27.3561C52.6997 27.6318 52.8016 27.38 52.8136 27.6678C52.8615 28.0034 52.6338 29.2502 52.5139 29.5319C52.6338 29.7057 52.5079 29.8915 52.5738 30.0534L52.5439 30.0354C52.5738 30.2092 52.3401 31.1323 52.364 31.342L52.388 31.3181C52.454 31.4979 52.3041 31.4619 52.2442 31.5878C52.4 31.5878 52.4719 31.7436 52.4779 31.8036L52.442 31.7976C52.4599 31.8815 52.5738 32.0913 52.5738 32.2292L52.4899 32.2172C52.5678 32.343 52.5079 32.5588 52.5079 32.6487C52.4539 32.8465 52.2801 33.1402 52.37 33.416L52.1123 33.5718L52.1363 33.5958C52.1363 33.5958 52.8615 33.7156 53.6707 33.7876C54.4799 33.8595 55.367 33.8955 55.6967 33.7576L55.7806 33.7696L55.7746 33.7037C55.8226 33.6317 55.7266 33.5898 55.8106 33.6018L55.7926 33.7037C55.8226 33.6317 55.8645 33.6857 55.9125 33.7156C55.9245 33.6857 55.9364 33.6557 55.9664 33.6317C55.9364 33.6138 55.9304 33.6377 55.9125 33.6497C55.8885 33.6078 55.8106 33.5478 55.8525 33.4999C55.8705 33.4279 55.9904 33.5059 56.0084 33.422C56.1103 32.9724 56.2601 32.5109 56.2961 32.0074C56.332 32.0014 56.332 32.0134 56.344 32.0253C56.3261 31.8695 56.35 31.7436 56.332 31.5998C56.374 31.5698 56.4279 31.5638 56.4639 31.5578C56.374 31.5938 56.4579 30.8026 56.4819 30.7906Z" />
</svg>
