<svg width="11" height="18" viewBox="0 0 11 18" fill="none" xmlns="http://www.w3.org/2000/svg">
<path d="M2.58064 0.356201L10.7339 8.33509C10.8306 8.43008 10.899 8.53298 10.939 8.6438C10.9797 8.75462 11 8.87335 11 9C11 9.12665 10.9797 9.24538 10.939 9.3562C10.899 9.46702 10.8306 9.56992 10.7339 9.66491L2.58064 17.6675C2.35484 17.8892 2.07258 18 1.73387 18C1.39516 18 1.10484 17.8813 0.862904 17.6438C0.620968 17.4063 0.5 17.1293 0.5 16.8127C0.5 16.496 0.620968 16.219 0.862904 15.9815L7.97581 9L0.862904 2.01847C0.637097 1.79683 0.524194 1.5239 0.524194 1.19968C0.524194 0.874828 0.645161 0.593668 0.887096 0.356201C1.12903 0.118734 1.41129 0 1.73387 0C2.05645 0 2.33871 0.118734 2.58064 0.356201Z" />
</svg>
