<svg width="1440" height="1200" viewBox="0 0 1440 1200" fill="none" xmlns="http://www.w3.org/2000/svg">
<path d="M0.5 1199.5V528.873C4.90751 610.881 23.5551 694.743 49.8709 764.875C64.9954 805.182 82.6576 840.965 101.615 869.261C120.566 897.547 140.839 918.392 161.201 928.761C208.177 952.683 248.154 960.152 284.522 959.411C320.867 958.669 353.589 949.727 386.031 940.861L386.055 940.854C419.495 931.715 452.636 922.661 489.249 922.661C543.105 922.661 603.515 945.46 664.046 968.312L664.109 968.336C724.565 991.159 785.138 1014.03 839.196 1014.03C893.18 1014.03 982.95 1010.13 1069.75 999.041C1113.15 993.497 1155.81 986.153 1192.89 976.596C1229.97 967.042 1261.5 955.266 1282.61 940.836C1317.11 917.246 1335.85 903.776 1349.98 891.656C1364.1 879.535 1373.61 868.77 1389.63 850.619L1389.64 850.603C1396.67 842.644 1404.95 833.262 1415.43 821.717C1430.6 805.004 1437.5 788.245 1439.5 770.593V1199.5H0.5ZM1439.5 365.278V745.897C1438 730.024 1434.05 713.232 1429.78 695.015L1429.77 694.968C1421.97 661.753 1413.04 623.717 1415.56 577.57C1418.18 529.697 1424.38 488.073 1429.83 451.527L1429.83 451.508C1434.15 422.527 1437.99 396.722 1439.19 373.546C1439.33 370.752 1439.44 367.997 1439.5 365.278ZM1439.5 353.797C1439.11 338.456 1437.08 324.33 1432.63 311.223C1430.85 305.998 1426.52 299.247 1420.2 292.248C1413.88 285.241 1405.55 277.955 1395.75 271.665C1376.14 259.089 1350.6 250.469 1323.45 256.107C1308.7 259.17 1298.08 262.816 1288.25 266.188L1288.24 266.189C1275.14 270.683 1263.46 274.689 1245.27 276.224C1227.06 277.76 1202.3 276.823 1163.06 271.391C1114.05 264.605 1065.02 250.105 1015.96 235.592L1015.93 235.583C957.074 218.176 898.157 200.749 839.23 196.67C777.495 192.396 715.769 202.774 654.113 213.139L654.083 213.144C607.82 220.922 561.595 228.692 515.377 230.292C441.561 232.847 362.551 216.751 311.409 206.332L311.402 206.33C299.625 203.931 289.32 201.831 280.903 200.332C272.495 198.834 265.931 197.928 261.652 197.928C251.992 197.928 243.289 195.228 233.95 192.326L233.946 192.325C217.592 187.243 199.442 181.603 171.353 189.215C55.9143 220.497 7.80276 330.661 0.5 456.941V0.5H1439.5V353.797Z" fill="#ffffff"/>
</svg>
